{
.appVersion = "3236";
.formatVersion = 3;
DisplayStrings = (
J
);
axes = (
{
name = Weight;
tag = wght;
}
);
customParameters = (
{
name = glyphOrder;
value = (
"ABCDEFGHIJKLMNOPQRSTUVWXYZabcdefghijklmnopqrstuvwxy0123456789.,-"
);
},
{
name = "Instance Preview";
value = (
"ABC DEF GHI"
);
}
);
date = "2024-02-02 22:31:07 +0000";
familyName = Typeople;
featurePrefixes = (
{
automatic = 1;
code = "languagesystem DFLT dflt;
";
name = Languagesystems;
}
);
fontMaster = (
{
axesValues = (
200
);
id = m01;
metricValues = (
{
over = 50;
pos = 400;
},
{
pos = 300;
},
{
pos = 150;
},
{
},
{
},
{
}
);
name = Geodorks;
},
{
axesValues = (
400
);
iconName = Bold;
id = "054B8FAF-C17B-419D-B2A9-68F3C3D62E10";
metricValues = (
{
over = 50;
pos = 400;
},
{
pos = 300;
},
{
pos = 150;
},
{
},
{
},
{
}
);
name = Syms;
}
);
glyphs = (
{
glyphname = A;
lastChange = "2024-02-06 15:29:33 +0000";
layers = (
{
layerId = m01;
shapes = (
{
closed = 1;
nodes = (
(0,300,l),
(0,338,l),
(14,342,o),
(24,353,o),
(28,366,c),
(47,366,l),
(47,385,l),
(27,385,l),
(23,401,o),
(8,413,o),
(-9,413,cs),
(-30,413,o),
(-46,396,o),
(-46,375,cs),
(-46,358,o),
(-34,343,o),
(-19,339,c),
(-19,300,l)
);
},
{
closed = 1;
nodes = (
(-14,375,o),
(-19,380,o),
(-19,385,cs),
(-19,389,o),
(-14,394,o),
(-9,394,cs),
(-4,394,o),
(0,389,o),
(0,385,cs),
(0,380,o),
(-4,375,o),
(-9,375,cs)
);
}
);
width = 1;
},
{
layerId = "054B8FAF-C17B-419D-B2A9-68F3C3D62E10";
shapes = (
{
closed = 1;
nodes = (
(23,300,l),
(23,317,l),
(38,317,l),
(38,333,l),
(55,333,l),
(55,368,l),
(38,368,l),
(38,384,l),
(23,384,l),
(23,400,l),
(-23,400,l),
(-23,384,l),
(-39,384,l),
(-39,368,l),
(-55,368,l),
(-55,333,l),
(-39,333,l),
(-39,317,l),
(-23,317,l),
(-23,300,l)
);
},
{
closed = 1;
nodes = (
(-32,351,o),
(-35,354,o),
(-36,357,c),
(-34,363,o),
(-29,367,o),
(-22,367,cs),
(-16,367,o),
(-10,363,o),
(-9,357,c),
(-10,354,o),
(-12,351,o),
(-16,349,c),
(-15,350,o),
(-14,352,o),
(-14,354,cs),
(-14,358,o),
(-18,362,o),
(-22,362,cs),
(-27,362,o),
(-30,358,o),
(-30,354,cs),
(-30,352,o),
(-30,350,o),
(-29,349,c)
);
},
{
closed = 1;
nodes = (
(0,359,l),
(7,315,l),
(-8,315,l)
);
},
{
closed = 1;
nodes = (
(11,351,o),
(9,354,o),
(8,357,c),
(9,363,o),
(15,367,o),
(21,367,cs),
(28,367,o),
(33,363,o),
(35,357,c),
(34,354,o),
(31,351,o),
(28,349,c),
(29,350,o),
(29,352,o),
(29,354,cs),
(29,358,o),
(26,362,o),
(21,362,cs),
(17,362,o),
(13,358,o),
(13,354,cs),
(13,352,o),
(14,350,o),
(15,349,c)
);
}
);
width = 0;
}
);
unicode = 65;
},
{
glyphname = B;
lastChange = "2024-02-06 15:30:07 +0000";
layers = (
{
layerId = m01;
shapes = (
{
closed = 1;
nodes = (
(56,150,l),
(56,175,l),
(58,173,o),
(61,172,o),
(64,172,cs),
(71,172,o),
(77,178,o),
(77,185,cs),
(77,192,o),
(71,198,o),
(64,198,cs),
(62,198,o),
(61,198,o),
(59,197,c),
(109,247,l),
(56,300,l),
(-56,300,l),
(-110,247,l),
(-59,197,l),
(-61,197,o),
(-62,197,o),
(-63,197,cs),
(-71,197,o),
(-77,191,o),
(-77,185,cs),
(-77,177,o),
(-71,171,o),
(-63,171,cs),
(-61,171,o),
(-59,172,o),
(-56,173,c),
(-56,150,l)
);
},
{
closed = 1;
nodes = (
(-83,247,l),
(-56,274,l),
(-56,221,l)
);
},
{
closed = 1;
nodes = (
(56,273,l),
(82,247,l),
(56,221,l)
);
}
);
width = 0;
},
{
layerId = "054B8FAF-C17B-419D-B2A9-68F3C3D62E10";
shapes = (
{
closed = 1;
nodes = (
(23,300,l),
(23,283,l),
(-23,283,l),
(-23,300,l),
(-98,300,l),
(-98,223,l),
(-69,223,l),
(-69,179,l),
(-31,179,l),
(-31,150,l),
(31,150,l),
(31,179,l),
(69,179,l),
(69,223,l),
(97,223,l),
(97,300,l)
);
},
{
closed = 1;
nodes = (
(-98,150,l),
(-69,150,l),
(-69,170,l),
(-98,170,l)
);
},
{
closed = 1;
nodes = (
(69,150,l),
(97,150,l),
(97,170,l),
(69,170,l)
);
}
);
width = 0;
}
);
unicode = 66;
},
{
glyphname = C;
lastChange = "2024-02-06 15:30:17 +0000";
layers = (
{
layerId = m01;
shapes = (
{
closed = 1;
nodes = (
(41,0,l),
(41,150,l),
(23,150,l),
(23,19,l),
(4,19,l),
(4,0,l)
);
},
{
closed = 1;
nodes = (
(-4,0,l),
(-4,150,l),
(-22,150,l),
(-22,19,l),
(-41,19,l),
(-41,0,l)
);
}
);
width = 0;
},
{
layerId = "054B8FAF-C17B-419D-B2A9-68F3C3D62E10";
shapes = (
{
closed = 1;
nodes = (
(-64,150,l),
(-64,114,l),
(-77,114,l),
(-77,79,l),
(-64,79,l),
(-64,29,l),
(-89,29,l),
(-89,0,l),
(-18,0,l),
(-18,79,l),
(-31,79,l),
(-31,114,l),
(-18,114,l),
(-18,150,l)
);
},
{
closed = 1;
nodes = (
(18,150,l),
(18,114,l),
(31,114,l),
(31,79,l),
(18,79,l),
(18,0,l),
(89,0,l),
(89,29,l),
(64,29,l),
(64,79,l),
(77,79,l),
(77,114,l),
(64,114,l),
(64,150,l)
);
}
);
width = 0;
}
);
unicode = 67;
},
{
glyphname = D;
lastChange = "2024-02-06 15:30:30 +0000";
layers = (
{
layerId = m01;
shapes = (
{
closed = 1;
nodes = (
(-12,300,l),
(-8,320,l),
(-6,320,o),
(-5,319,o),
(-4,319,c),
(-4,300,l),
(15,300,l),
(15,318,l),
(28,322,o),
(39,332,o),
(43,346,c),
(62,346,l),
(62,365,l),
(42,365,l),
(38,379,o),
(25,390,o),
(10,392,c),
(-41,392,l),
(-63,300,l)
);
},
{
closed = 1;
nodes = (
(4,355,o),
(3,355,o),
(1,356,c),
(6,374,l),
(11,374,o),
(15,369,o),
(15,365,cs),
(15,359,o),
(10,355,o),
(6,355,cs)
);
}
);
width = 0;
},
{
layerId = "054B8FAF-C17B-419D-B2A9-68F3C3D62E10";
shapes = (
{
closed = 1;
nodes = (
(9,300,o),
(18,303,o),
(26,307,c),
(61,307,l),
(61,315,l),
(39,315,l),
(41,317,l),
(61,317,l),
(61,325,l),
(48,325,l),
(56,335,o),
(61,348,o),
(61,362,cs),
(61,364,l),
(40,400,l),
(19,364,l),
(-20,364,l),
(-41,400,l),
(-61,364,l),
(-61,362,ls),
(-61,348,o),
(-57,335,o),
(-49,325,c),
(-61,325,l),
(-61,317,l),
(-42,317,l),
(-41,316,o),
(-40,316,o),
(-39,315,c),
(-61,315,l),
(-61,307,l),
(-27,307,l),
(-19,303,o),
(-10,300,o),
(0,300,cs)
);
},
{
closed = 1;
nodes = (
(-42,332,o),
(-49,337,o),
(-53,343,c),
(-49,349,o),
(-42,354,o),
(-35,356,c),
(-39,353,o),
(-42,348,o),
(-42,343,cs),
(-42,337,o),
(-39,333,o),
(-35,330,c)
);
},
{
closed = 1;
nodes = (
(-30,336,o),
(-32,339,o),
(-32,343,cs),
(-32,347,o),
(-30,350,o),
(-28,352,c),
(-26,350,o),
(-24,347,o),
(-24,343,cs),
(-24,339,o),
(-26,336,o),
(-28,333,c)
);
},
{
closed = 1;
nodes = (
(-4,318,o),
(-6,321,o),
(-6,324,cs),
(-6,329,l),
(6,329,l),
(6,324,ls),
(6,321,o),
(3,318,o),
(0,318,cs)
);
},
{
closed = 1;
nodes = (
(-16,333,o),
(-13,337,o),
(-13,343,cs),
(-13,348,o),
(-16,353,o),
(-21,356,c),
(-14,354,o),
(-7,349,o),
(-3,343,c),
(-7,337,o),
(-14,332,o),
(-21,330,c)
);
},
{
closed = 1;
nodes = (
(-41,382,l),
(-31,364,l),
(-51,364,l)
);
},
{
closed = 1;
nodes = (
(13,332,o),
(6,337,o),
(2,343,c),
(6,349,o),
(13,354,o),
(20,356,c),
(16,353,o),
(13,348,o),
(13,343,cs),
(13,337,o),
(16,333,o),
(20,330,c)
);
},
{
closed = 1;
nodes = (
(25,336,o),
(23,339,o),
(23,343,cs),
(23,347,o),
(25,350,o),
(27,352,c),
(29,350,o),
(31,347,o),
(31,343,cs),
(31,339,o),
(29,336,o),
(27,333,c)
);
},
{
closed = 1;
nodes = (
(38,333,o),
(41,337,o),
(41,343,cs),
(41,348,o),
(38,353,o),
(34,356,c),
(41,354,o),
(48,349,o),
(52,343,c),
(48,337,o),
(41,332,o),
(34,330,c)
);
},
{
closed = 1;
nodes = (
(40,382,l),
(50,364,l),
(30,364,l)
);
}
);
width = 0;
}
);
unicode = 68;
},
{
glyphname = E;
lastChange = "2024-02-06 15:30:41 +0000";
layers = (
{
layerId = m01;
shapes = (
{
closed = 1;
nodes = (
(-40,89,l),
(-31,174,l),
(-56,174,l),
(-52,201,l),
(-52,211,l),
(-63,211,l),
(-64,214,o),
(-67,217,o),
(-70,218,c),
(-12,281,l),
(-25,150,l),
(87,150,l),
(85,173,l),
(86,172,o),
(89,172,o),
(92,172,cs),
(98,172,o),
(104,178,o),
(104,185,cs),
(104,192,o),
(98,198,o),
(92,198,cs),
(89,198,o),
(88,198,o),
(86,197,c),
(136,247,l),
(83,300,l),
(-21,300,l),
(-88,227,l),
(-78,218,l),
(-82,217,o),
(-85,215,o),
(-86,211,c),
(-98,211,l),
(-98,201,l),
(-103,174,l),
(-125,174,l),
(-136,89,l)
);
},
{
closed = 1;
nodes = (
(-88,201,l),
(-87,201,l),
(-85,196,o),
(-80,193,o),
(-74,193,cs),
(-69,193,o),
(-64,196,o),
(-62,201,c),
(-61,201,l),
(-66,174,l),
(-93,174,l)
);
},
{
closed = 1;
nodes = (
(74,283,l),
(110,247,l),
(80,217,l)
);
}
);
width = 0;
},
{
layerId = "054B8FAF-C17B-419D-B2A9-68F3C3D62E10";
shapes = (
{
closed = 1;
nodes = (
(35,150,l),
(35,209,l),
(71,223,o),
(96,258,o),
(96,300,c),
(88,300,l),
(88,284,l),
(81,284,l),
(81,300,l),
(73,300,l),
(73,284,l),
(66,284,l),
(66,300,l),
(58,300,l),
(58,284,l),
(51,284,l),
(51,300,l),
(42,300,l),
(42,277,o),
(25,259,o),
(4,257,cs),
(-3,257,ls),
(-24,259,o),
(-41,277,o),
(-41,300,c),
(-50,300,l),
(-50,284,l),
(-57,284,l),
(-57,300,l),
(-65,300,l),
(-65,284,l),
(-72,284,l),
(-72,300,l),
(-80,300,l),
(-80,284,l),
(-87,284,l),
(-87,300,l),
(-95,300,l),
(-95,258,o),
(-70,223,o),
(-33,209,c),
(-33,150,l)
);
}
);
width = 1;
}
);
unicode = 69;
},
{
glyphname = F;
lastChange = "2024-02-06 15:30:49 +0000";
layers = (
{
layerId = m01;
shapes = (
{
closed = 1;
nodes = (
(-18,0,l),
(-18,11,l),
(-11,11,l),
(-11,0,l),
(-4,0,l),
(-4,39,l),
(5,39,l),
(5,0,l),
(12,0,l),
(12,11,l),
(19,11,l),
(19,0,l),
(42,0,l),
(42,19,l),
(23,19,l),
(23,39,l),
(56,39,l),
(41,150,l),
(-41,150,l),
(-56,39,l),
(-22,39,l),
(-22,19,l),
(-41,19,l),
(-41,0,l)
);
}
);
width = 0;
},
{
layerId = "054B8FAF-C17B-419D-B2A9-68F3C3D62E10";
shapes = (
{
closed = 1;
nodes = (
(-6,0,l),
(-6,16,l),
(-15,16,l),
(0,76,l),
(15,16,l),
(6,16,l),
(6,0,l),
(81,0,l),
(81,16,l),
(70,16,l),
(46,111,l),
(55,111,l),
(55,150,l),
(-56,150,l),
(-56,111,l),
(-46,111,l),
(-70,16,l),
(-82,16,l),
(-82,0,l)
);
},
{
closed = 1;
nodes = (
(-27,111,l),
(-13,111,l),
(-38,16,l),
(-51,16,l)
);
},
{
closed = 1;
nodes = (
(13,111,l),
(27,111,l),
(51,16,l),
(37,16,l)
);
}
);
width = 0;
}
);
unicode = 70;
},
{
glyphname = G;
lastChange = "2024-02-06 15:31:08 +0000";
layers = (
{
layerId = m01;
shapes = (
{
closed = 1;
nodes = (
(20,296,o),
(29,305,o),
(29,316,cs),
(29,324,o),
(26,330,o),
(20,334,c),
(22,334,o),
(25,334,o),
(28,334,c),
(44,339,o),
(56,355,o),
(56,371,c),
(75,376,l),
(71,394,l),
(52,388,l),
(49,394,o),
(44,399,o),
(39,403,c),
(47,406,l),
(41,423,ls),
(33,442,o),
(11,452,o),
(-8,445,cs),
(-28,437,o),
(-37,415,o),
(-29,396,c),
(-75,379,l),
(-68,361,l),
(-18,380,l),
(-19,374,o),
(-19,368,o),
(-18,362,cs),
(-15,349,o),
(-6,340,o),
(5,336,c),
(-4,334,o),
(-10,326,o),
(-10,316,cs),
(-10,305,o),
(-1,296,o),
(9,296,cs)
);
},
{
closed = 1;
nodes = (
(23,372,o),
(18,376,o),
(18,382,cs),
(18,386,o),
(23,391,o),
(27,391,cs),
(32,391,o),
(37,386,o),
(37,382,cs),
(37,376,o),
(32,372,o),
(27,372,cs)
);
}
);
width = 0;
},
{
layerId = "054B8FAF-C17B-419D-B2A9-68F3C3D62E10";
shapes = (
{
closed = 1;
nodes = (
(-37,350,l),
(-37,370,o),
(-21,387,o),
(0,387,cs),
(20,387,o),
(37,370,o),
(37,350,c),
(50,350,l),
(50,377,o),
(27,400,o),
(0,400,cs),
(-28,400,o),
(-50,377,o),
(-50,350,c)
);
},
{
closed = 1;
nodes = (
(-19,329,l),
(18,329,l),
(18,318,l),
(-19,318,l)
);
},
{
closed = 1;
nodes = (
(14,300,l),
(27,327,l),
(27,348,ls),
(27,363,o),
(15,375,o),
(0,375,cs),
(-15,375,o),
(-28,363,o),
(-28,348,cs),
(-28,327,l),
(-14,300,l)
);
},
{
closed = 1;
nodes = (
(0,349,l),
(8,334,l),
(-9,334,l)
);
},
{
closed = 1;
nodes = (
(-11,348,o),
(-12,348,o),
(-13,349,cs),
(-14,350,o),
(-14,350,o),
(-14,351,c),
(-15,352,o),
(-15,354,o),
(-14,355,cs),
(-12,357,l),
(-11,357,o),
(-10,358,o),
(-9,358,c),
(-9,353,l),
(-4,353,l),
(-4,351,o),
(-4,350,o),
(-5,350,c),
(-5,349,o),
(-6,348,o),
(-7,348,c),
(-8,347,o),
(-9,347,o),
(-10,347,c)
);
},
{
closed = 1;
nodes = (
(6,348,o),
(5,348,o),
(5,349,c),
(4,350,o),
(3,350,o),
(3,351,cs),
(3,352,o),
(3,354,o),
(4,355,c),
(4,355,o),
(5,356,o),
(5,357,c),
(6,357,o),
(7,358,o),
(8,358,c),
(8,353,l),
(14,353,l),
(14,351,o),
(13,350,o),
(13,350,c),
(12,349,o),
(11,348,o),
(10,348,c),
(9,347,o),
(8,347,o),
(7,347,c)
);
},
{
closed = 1;
nodes = (
);
}
);
width = 0;
}
);
unicode = 71;
},
{
glyphname = H;
lastChange = "2024-02-06 15:31:31 +0000";
layers = (
{
layerId = m01;
shapes = (
{
closed = 1;
nodes = (
(23,150,l),
(28,253,l),
(133,332,l),
(125,343,ls),
(126,342,o),
(128,342,o),
(131,342,cs),
(137,342,o),
(143,347,o),
(143,355,cs),
(143,357,o),
(143,359,o),
(142,362,c),
(148,359,o),
(154,358,o),
(161,358,cs),
(187,358,o),
(208,379,o),
(208,404,cs),
(208,431,o),
(187,452,o),
(161,452,cs),
(134,452,o),
(113,431,o),
(113,404,cs),
(113,390,o),
(120,377,o),
(131,368,cs),
(129,370,o),
(117,365,o),
(117,355,cs),
(117,354,o),
(117,354,o),
(117,353,c),
(115,356,l),
(29,293,l),
(30,300,l),
(-52,300,l),
(-182,269,l),
(-184,273,o),
(-189,276,o),
(-194,276,cs),
(-202,276,o),
(-208,270,o),
(-208,263,cs),
(-208,256,o),
(-202,250,o),
(-194,250,cs),
(-190,250,o),
(-187,252,o),
(-184,254,c),
(-180,238,l),
(-61,266,l),
(-90,150,l)
);
}
);
width = 0;
},
{
layerId = "054B8FAF-C17B-419D-B2A9-68F3C3D62E10";
shapes = (
{
closed = 1;
nodes = (
(57,150,l),
(57,300,l),
(25,300,l),
(25,286,o),
(14,276,o),
(1,276,cs),
(0,276,ls),
(-13,276,o),
(-24,286,o),
(-24,300,c),
(-56,300,l),
(-56,150,l)
);
},
{
closed = 1;
nodes = (
(-71,150,o),
(-64,157,o),
(-64,165,cs),
(-64,174,l),
(-95,174,l),
(-95,165,ls),
(-95,157,o),
(-88,150,o),
(-80,150,cs)
);
},
{
closed = 1;
nodes = (
(-64,184,l),
(-64,284,ls),
(-64,292,o),
(-71,300,o),
(-80,300,cs),
(-88,300,o),
(-95,292,o),
(-95,284,cs),
(-95,184,l)
);
},
{
closed = 1;
nodes = (
(-17,162,o),
(-40,184,o),
(-40,212,cs),
(-40,239,o),
(-17,262,o),
(10,262,cs),
(17,262,o),
(23,260,o),
(29,258,c),
(29,243,l),
(23,247,o),
(17,249,o),
(10,249,cs),
(-10,249,o),
(-27,232,o),
(-27,212,cs),
(-27,191,o),
(-10,175,o),
(10,175,cs),
(17,175,o),
(23,176,o),
(29,180,c),
(29,165,l),
(23,163,o),
(17,162,o),
(10,162,cs)
);
},
{
closed = 1;
nodes = (
(89,150,o),
(96,157,o),
(96,165,cs),
(96,174,l),
(65,174,l),
(65,165,ls),
(65,157,o),
(72,150,o),
(81,150,cs)
);
},
{
closed = 1;
nodes = (
(96,184,l),
(96,284,ls),
(96,292,o),
(89,300,o),
(81,300,cs),
(72,300,o),
(65,292,o),
(65,284,cs),
(65,184,l)
);
}
);
width = 1;
}
);
unicode = 72;
},
{
glyphname = I;
lastChange = "2024-02-06 15:32:13 +0000";
layers = (
{
layerId = m01;
shapes = (
{
closed = 1;
nodes = (
(-28,0,l),
(-28,19,l),
(-39,19,l),
(22,79,l),
(-38,138,l),
(-23,138,l),
(37,79,l),
(-23,20,l),
(-12,9,l),
(-12,0,l),
(36,0,l),
(36,19,l),
(16,19,l),
(76,79,l),
(-3,158,l),
(-77,158,l),
(-77,138,l),
(-18,79,l),
(-77,20,l),
(-66,8,l),
(-66,0,l)
);
}
);
width = 0;
},
{
layerId = "054B8FAF-C17B-419D-B2A9-68F3C3D62E10";
shapes = (
{
closed = 1;
nodes = (
(17,0,l),
(17,7,l),
(29,7,l),
(29,0,l),
(78,0,l),
(78,16,l),
(78,28,o),
(68,38,o),
(56,38,c),
(49,38,o),
(43,35,o),
(39,29,c),
(39,150,l),
(33,150,l),
(33,59,l),
(27,59,l),
(27,150,l),
(20,150,l),
(20,59,l),
(14,59,l),
(14,150,l),
(7,150,l),
(7,0,l)
);
},
{
closed = 1;
nodes = (
(-28,0,l),
(-28,7,l),
(-16,7,l),
(-16,0,l),
(-6,0,l),
(-6,150,l),
(-13,150,l),
(-13,59,l),
(-19,59,l),
(-19,150,l),
(-25,150,l),
(-25,59,l),
(-31,59,l),
(-31,150,l),
(-38,150,l),
(-38,29,l),
(-42,35,o),
(-48,38,o),
(-55,38,c),
(-67,38,o),
(-77,28,o),
(-77,16,c),
(-77,0,l)
);
}
);
width = 1;
}
);
unicode = 73;
},
{
glyphname = J;
lastChange = "2024-02-06 15:32:27 +0000";
layers = (
{
layerId = m01;
shapes = (
{
closed = 1;
nodes = (
(19,300,l),
(24,323,l),
(12,323,l),
(12,331,l),
(55,331,l),
(45,366,l),
(57,366,l),
(57,385,l),
(39,385,l),
(34,401,o),
(19,413,o),
(2,413,cs),
(0,413,l),
(8,417,o),
(10,427,o),
(6,435,cs),
(1,443,o),
(-9,446,o),
(-17,441,cs),
(-29,434,l),
(-33,445,l),
(-41,440,l),
(-34,431,l),
(-46,425,ls),
(-54,420,o),
(-57,410,o),
(-52,401,cs),
(-48,394,o),
(-37,391,o),
(-29,395,c),
(-31,392,o),
(-33,389,o),
(-34,384,c),
(-51,331,l),
(-7,331,l),
(-7,323,l),
(-20,323,l),
(-15,300,l)
);
},
{
closed = 1;
nodes = (
(11,375,o),
(6,380,o),
(6,385,cs),
(6,389,o),
(11,394,o),
(16,394,cs),
(21,394,o),
(25,389,o),
(25,385,cs),
(25,380,o),
(21,375,o),
(16,375,cs)
);
}
);
width = 3;
},
{
layerId = "054B8FAF-C17B-419D-B2A9-68F3C3D62E10";
shapes = (
{
closed = 1;
nodes = (
(-9,302,o),
(-12,306,o),
(-12,311,cs),
(-12,318,o),
(-6,323,o),
(0,323,cs),
(7,323,o),
(13,318,o),
(13,311,cs),
(13,306,o),
(10,302,o),
(6,300,c),
(29,303,o),
(48,321,o),
(50,344,c),
(48,341,o),
(44,338,o),
(39,338,cs),
(33,338,o),
(28,343,o),
(27,349,c),
(26,347,o),
(24,344,o),
(22,343,c),
(22,344,o),
(23,346,o),
(23,348,cs),
(23,352,o),
(20,355,o),
(16,355,cs),
(12,355,o),
(8,352,o),
(8,348,cs),
(8,346,o),
(9,344,o),
(10,343,c),
(7,344,o),
(4,347,o),
(3,351,c),
(5,356,o),
(10,360,o),
(16,360,cs),
(21,360,o),
(26,357,o),
(28,352,c),
(28,358,o),
(33,362,o),
(39,362,cs),
(44,362,o),
(48,359,o),
(50,355,c),
(48,379,o),
(29,397,o),
(6,400,c),
(10,398,o),
(13,394,o),
(13,389,cs),
(13,382,o),
(7,377,o),
(0,377,cs),
(-6,377,o),
(-12,382,o),
(-12,389,cs),
(-12,394,o),
(-9,398,o),
(-5,400,c),
(-28,397,o),
(-47,379,o),
(-49,356,c),
(-47,359,o),
(-43,362,o),
(-38,362,cs),
(-32,362,o),
(-27,358,o),
(-26,352,c),
(-24,356,o),
(-20,360,o),
(-14,360,cs),
(-9,360,o),
(-4,356,o),
(-2,351,c),
(-3,347,o),
(-5,345,o),
(-8,343,c),
(-8,344,o),
(-7,346,o),
(-7,348,cs),
(-7,352,o),
(-10,355,o),
(-14,355,cs),
(-18,355,o),
(-22,352,o),
(-22,348,cs),
(-22,346,o),
(-21,344,o),
(-20,343,c),
(-23,344,o),
(-25,347,o),
(-26,350,c),
(-26,343,o),
(-32,338,o),
(-38,338,cs),
(-43,338,o),
(-47,340,o),
(-49,344,c),
(-47,321,o),
(-28,303,o),
(-5,300,c)
);
},
{
closed = 1;
nodes = (
(-4,329,o),
(-8,333,o),
(-8,338,c),
(9,338,l),
(9,333,o),
(5,329,o),
(1,329,cs),
(0,329,ls)
);
}
);
width = 1;
}
);
unicode = 74;
},
{
glyphname = K;
lastChange = "2024-02-06 15:28:32 +0000";
layers = (
{
layerId = m01;
shapes = (
{
closed = 1;
nodes = (
(187,57,l),
(173,188,l),
(175,187,o),
(177,186,o),
(180,186,cs),
(187,186,o),
(193,192,o),
(193,200,cs),
(193,206,o),
(187,212,o),
(180,212,cs),
(178,212,o),
(176,212,o),
(174,212,c),
(225,261,l),
(171,314,l),
(53,314,l),
(0,261,l),
(50,212,l),
(48,212,o),
(46,212,o),
(45,212,cs),
(37,212,o),
(31,206,o),
(31,200,cs),
(31,192,o),
(37,186,o),
(45,186,cs),
(47,186,o),
(48,187,o),
(51,188,c),
(37,57,l)
);
},
{
closed = 1;
nodes = (
(26,261,l),
(62,297,l),
(55,233,l)
);
},
{
closed = 1;
nodes = (
(107,240,o),
(102,245,o),
(102,250,cs),
(102,254,o),
(107,259,o),
(112,259,cs),
(117,259,o),
(121,254,o),
(121,250,cs),
(121,245,o),
(117,240,o),
(112,240,cs)
);
},
{
closed = 1;
nodes = (
(107,275,o),
(102,280,o),
(102,285,cs),
(102,290,o),
(107,294,o),
(112,294,cs),
(117,294,o),
(121,290,o),
(121,285,cs),
(121,280,o),
(117,275,o),
(112,275,cs)
);
},
{
closed = 1;
nodes = (
(162,298,l),
(198,261,l),
(168,232,l)
);
}
);
width = 225;
},
{
layerId = "054B8FAF-C17B-419D-B2A9-68F3C3D62E10";
shapes = (
{
closed = 1;
nodes = (
(60,150,l),
(36,300,l),
(25,300,l),
(25,251,l),
(0,299,l),
(-26,251,l),
(-26,300,l),
(-37,300,l),
(-60,150,l)
);
},
{
closed = 1;
nodes = (
(-6,251,o),
(-11,255,o),
(-11,261,c),
(-11,267,o),
(-6,271,o),
(0,271,c),
(5,271,o),
(10,267,o),
(10,261,c),
(10,255,o),
(5,251,o),
(0,251,c)
);
}
);
width = 0;
}
);
unicode = 75;
},
{
glyphname = L;
lastChange = "2024-02-06 15:28:32 +0000";
layers = (
{
layerId = m01;
shapes = (
{
closed = 1;
nodes = (
(163,0,l),
(163,20,l),
(118,20,l),
(118,150,l),
(93,150,l),
(93,0,l)
);
},
{
closed = 1;
nodes = (
(70,0,l),
(70,150,l),
(45,150,l),
(45,20,l),
(0,20,l),
(0,0,l)
);
}
);
width = 163;
},
{
layerId = "054B8FAF-C17B-419D-B2A9-68F3C3D62E10";
shapes = (
{
closed = 1;
nodes = (
(18,0,l),
(18,22,l),
(32,22,l),
(32,0,l),
(73,0,l),
(73,38,ls),
(73,58,o),
(57,75,o),
(37,75,c),
(34,72,ls),
(28,65,o),
(16,66,o),
(12,75,c),
(5,75,l),
(5,0,l)
);
},
{
closed = 1;
nodes = (
(-32,0,l),
(-32,22,l),
(-19,22,l),
(-19,0,l),
(-6,0,l),
(-6,75,l),
(-13,75,l),
(-17,66,o),
(-29,65,o),
(-35,72,cs),
(-37,75,l),
(-57,75,o),
(-73,58,o),
(-73,38,cs),
(-73,0,l)
);
},
{
closed = 1;
nodes = (
(-15,82,l),
(-15,150,l),
(-35,150,l),
(-35,82,l)
);
},
{
closed = 1;
nodes = (
(35,82,l),
(35,150,l),
(14,150,l),
(14,82,l)
);
}
);
width = 0;
}
);
unicode = 76;
},
{
glyphname = M;
lastChange = "2024-02-06 15:28:32 +0000";
layers = (
{
layerId = m01;
shapes = (
{
closed = 1;
nodes = (
(46,400,l),
(46,438,l),
(60,442,o),
(70,453,o),
(74,466,c),
(93,466,l),
(93,485,l),
(73,485,l),
(71,495,o),
(65,502,o),
(57,507,c),
(63,507,l),
(69,537,l),
(6,537,l),
(11,507,l),
(18,507,l),
(7,501,o),
(0,489,o),
(0,475,cs),
(0,458,o),
(12,443,o),
(27,439,c),
(27,400,l)
);
},
{
closed = 1;
nodes = (
(23,475,o),
(18,480,o),
(18,485,cs),
(18,489,o),
(23,494,o),
(28,494,cs),
(33,494,o),
(37,489,o),
(37,485,cs),
(37,480,o),
(33,475,o),
(28,475,cs)
);
}
);
width = 93;
},
{
layerId = "054B8FAF-C17B-419D-B2A9-68F3C3D62E10";
shapes = (
{
closed = 1;
nodes = (
(34,300,l),
(46,300,o),
(54,312,o),
(49,323,c),
(14,390,l),
(8,402,o),
(-8,402,o),
(-14,390,c),
(-48,323,l),
(-53,312,o),
(-45,300,o),
(-33,300,c)
);
},
{
closed = 1;
nodes = (
(-14,309,o),
(-11,313,o),
(-11,317,c),
(-11,322,o),
(-14,325,o),
(-18,325,c),
(-23,325,o),
(-26,322,o),
(-26,317,c),
(-26,313,o),
(-23,309,o),
(-18,309,c)
);
},
{
closed = 1;
nodes = (
(-28,348,l),
(-9,348,l),
(-9,308,l),
(-28,308,l)
);
},
{
closed = 1;
nodes = (
(-3,322,l),
(4,322,l),
(4,308,l),
(-3,308,l)
);
},
{
closed = 1;
nodes = (
(24,309,o),
(28,313,o),
(28,317,c),
(28,322,o),
(24,325,o),
(20,325,c),
(15,325,o),
(12,322,o),
(12,317,c),
(12,313,o),
(15,309,o),
(20,309,c)
);
},
{
closed = 1;
nodes = (
(10,348,l),
(29,348,l),
(29,308,l),
(10,308,l)
);
}
);
width = 1;
}
);
unicode = 77;
},
{
glyphname = N;
lastChange = "2024-02-06 15:28:32 +0000";
layers = (
{
layerId = m01;
shapes = (
{
closed = 1;
nodes = (
(108,200,ls),
(125,200,o),
(140,211,o),
(144,227,c),
(146,224,o),
(150,222,o),
(155,222,cs),
(161,222,o),
(167,228,o),
(167,235,cs),
(167,242,o),
(161,248,o),
(155,248,cs),
(152,248,o),
(151,248,o),
(149,247,c),
(199,297,l),
(186,310,l),
(146,350,l),
(135,339,l),
(128,346,o),
(119,350,o),
(108,350,cs),
(106,350,l),
(111,353,o),
(114,358,o),
(114,364,cs),
(114,373,o),
(107,381,o),
(98,381,cs),
(81,381,ls),
(72,381,o),
(65,373,o),
(65,364,cs),
(65,358,o),
(68,353,o),
(73,350,c),
(71,350,ls),
(59,350,o),
(48,345,o),
(41,337,c),
(44,345,l),
(26,349,l),
(6,277,l),
(6,230,l),
(2,228,o),
(0,224,o),
(0,220,cs),
(0,212,o),
(6,206,o),
(14,206,cs),
(20,206,o),
(26,212,o),
(26,220,cs),
(26,223,o),
(24,227,o),
(21,229,c),
(25,229,l),
(25,274,l),
(34,307,l),
(37,289,o),
(52,275,o),
(71,275,cs),
(50,275,o),
(33,259,o),
(33,238,cs),
(33,217,o),
(50,200,o),
(71,200,cs)
);
},
{
closed = 1;
nodes = (
(130,270,o),
(120,275,o),
(108,275,cs),
(129,275,o),
(146,292,o),
(146,313,cs),
(146,318,o),
(145,322,o),
(143,327,c),
(173,297,l),
(137,262,l)
);
}
);
width = 199;
},
{
layerId = "054B8FAF-C17B-419D-B2A9-68F3C3D62E10";
shapes = (
{
closed = 1;
nodes = (
(18,150,l),
(18,191,l),
(24,183,o),
(34,177,o),
(45,177,c),
(60,177,o),
(72,186,o),
(77,198,c),
(72,211,o),
(60,219,o),
(45,219,c),
(34,219,o),
(24,214,o),
(18,205,c),
(18,257,l),
(35,263,o),
(47,280,o),
(47,300,c),
(21,300,l),
(21,288,o),
(12,279,o),
(1,279,c),
(-11,279,o),
(-20,288,o),
(-20,300,c),
(-46,300,l),
(-46,280,o),
(-34,263,o),
(-16,257,c),
(-16,223,l),
(-18,234,o),
(-24,245,o),
(-35,251,c),
(-48,259,o),
(-64,257,o),
(-75,249,c),
(-77,234,o),
(-70,220,o),
(-57,212,c),
(-44,204,o),
(-28,206,o),
(-17,215,c),
(-17,215,o),
(-17,215,o),
(-16,216,c),
(-16,150,l)
);
}
);
width = 2;
}
);
unicode = 78;
},
{
glyphname = O;
lastChange = "2024-02-06 15:28:32 +0000";
layers = (
{
layerId = m01;
shapes = (
{
closed = 1;
nodes = (
(82,0,l),
(82,19,l),
(64,19,l),
(64,150,l),
(45,150,l),
(45,0,l)
);
},
{
closed = 1;
nodes = (
(37,0,l),
(37,150,l),
(19,150,l),
(19,19,l),
(0,19,l),
(0,0,l)
);
}
);
width = 82;
},
{
layerId = "054B8FAF-C17B-419D-B2A9-68F3C3D62E10";
shapes = (
{
closed = 1;
nodes = (
(76,0,l),
(76,33,o),
(50,62,o),
(17,69,c),
(17,83,l),
(27,75,o),
(42,74,o),
(54,81,c),
(66,88,o),
(73,101,o),
(71,115,c),
(60,123,o),
(45,124,o),
(33,117,c),
(24,112,o),
(18,103,o),
(17,94,c),
(17,150,l),
(-17,150,l),
(-17,130,l),
(-24,138,o),
(-34,144,o),
(-45,144,c),
(-59,144,o),
(-71,135,o),
(-76,122,c),
(-71,110,o),
(-59,101,o),
(-45,101,c),
(-34,101,o),
(-24,107,o),
(-17,115,c),
(-17,69,l),
(-51,62,o),
(-76,33,o),
(-76,0,c)
);
}
);
width = 0;
}
);
unicode = 79;
},
{
glyphname = P;
lastChange = "2024-02-06 15:28:32 +0000";
layers = (
{
layerId = m01;
shapes = (
{
closed = 1;
nodes = (
(62,400,l),
(62,438,l),
(75,442,o),
(86,453,o),
(89,466,c),
(96,466,ls),
(101,466,o),
(105,470,o),
(105,475,cs),
(105,480,o),
(101,485,o),
(96,485,cs),
(89,485,l),
(87,493,o),
(81,501,o),
(74,506,c),
(81,508,o),
(86,514,o),
(86,522,cs),
(86,531,o),
(79,539,o),
(69,539,cs),
(56,539,l),
(57,550,l),
(48,550,l),
(50,539,l),
(36,539,ls),
(27,539,o),
(19,531,o),
(19,522,cs),
(19,514,o),
(24,508,o),
(32,506,c),
(24,501,o),
(19,493,o),
(17,484,cs),
(0,431,l),
(43,431,l),
(43,400,l)
);
},
{
closed = 1;
nodes = (
(60,475,o),
(56,480,o),
(56,485,cs),
(56,489,o),
(60,494,o),
(66,494,cs),
(71,494,o),
(75,489,o),
(75,485,cs),
(75,480,o),
(71,475,o),
(66,475,cs)
);
}
);
width = 105;
},
{
layerId = "054B8FAF-C17B-419D-B2A9-68F3C3D62E10";
shapes = (
{
closed = 1;
nodes = (
(9,300,ls),
(30,300,o),
(45,319,o),
(39,339,cs),
(27,379,ls),
(24,391,o),
(13,400,o),
(0,400,cs),
(-12,400,o),
(-23,391,o),
(-27,379,cs),
(-38,339,ls),
(-44,319,o),
(-29,300,o),
(-8,300,cs)
);
},
{
closed = 1;
nodes = (
(-8,339,o),
(-4,342,o),
(-4,347,cs),
(-4,350,o),
(-7,353,o),
(-10,354,c),
(-9,353,l),
(-9,351,o),
(-11,349,o),
(-13,349,cs),
(-14,349,o),
(-16,351,o),
(-16,353,c),
(-18,353,o),
(-21,350,o),
(-21,347,cs),
(-21,342,o),
(-17,339,o),
(-13,339,cs)
);
},
{
closed = 1;
nodes = (
(-16,304,o),
(-30,318,o),
(-30,335,cs),
(-30,352,o),
(-16,366,o),
(1,366,cs),
(18,366,o),
(31,352,o),
(31,335,cs),
(31,318,o),
(18,304,o),
(1,304,cs)
);
},
{
closed = 1;
nodes = (
(3,331,o),
(4,333,o),
(4,335,cs),
(4,337,o),
(3,339,o),
(1,339,cs),
(-1,339,o),
(-3,337,o),
(-3,335,cs),
(-3,333,o),
(-1,331,o),
(1,331,cs)
);
},
{
closed = 1;
nodes = (
(18,339,o),
(22,342,o),
(22,347,cs),
(22,350,o),
(20,353,o),
(17,354,c),
(17,351,o),
(15,349,o),
(14,349,cs),
(12,349,o),
(11,351,o),
(11,353,cs),
(11,354,l),
(8,353,o),
(6,350,o),
(6,347,cs),
(6,342,o),
(9,339,o),
(14,339,cs)
);
},
{
closed = 1;
nodes = (
);
},
{
closed = 1;
nodes = (
);
}
);
width = 1;
}
);
unicode = 80;
},
{
glyphname = Q;
lastChange = "2024-02-06 15:28:32 +0000";
layers = (
{
layerId = m01;
shapes = (
{
closed = 1;
nodes = (
(32,0,ls),
(35,0,o),
(38,3,o),
(38,6,cs),
(38,8,o),
(37,11,o),
(34,12,c),
(40,12,o),
(44,17,o),
(44,22,cs),
(44,25,o),
(43,28,o),
(40,29,c),
(49,29,l),
(46,28,o),
(45,25,o),
(45,22,cs),
(45,17,o),
(49,12,o),
(55,12,c),
(52,11,o),
(51,8,o),
(51,6,cs),
(51,3,o),
(54,0,o),
(57,0,cs),
(64,0,ls),
(67,0,o),
(70,3,o),
(70,6,cs),
(70,8,o),
(68,11,o),
(66,12,c),
(71,12,o),
(76,17,o),
(76,22,cs),
(76,27,o),
(72,32,o),
(67,32,c),
(74,36,o),
(79,44,o),
(79,53,cs),
(79,64,o),
(71,74,o),
(60,75,c),
(64,79,o),
(67,84,o),
(68,90,c),
(72,90,ls),
(74,90,o),
(76,92,o),
(76,94,cs),
(76,96,o),
(74,98,o),
(72,98,cs),
(68,98,l),
(67,107,o),
(61,113,o),
(53,116,c),
(58,117,o),
(61,121,o),
(61,125,cs),
(61,131,o),
(56,135,o),
(51,135,cs),
(50,135,o),
(49,134,o),
(49,134,c),
(55,179,l),
(59,179,o),
(62,182,o),
(64,185,c),
(67,189,o),
(67,196,o),
(64,200,c),
(67,197,l),
(103,251,l),
(103,225,l),
(141,225,ls),
(120,225,o),
(103,209,o),
(103,188,cs),
(103,167,o),
(120,150,o),
(141,150,cs),
(178,150,ls),
(189,150,o),
(198,155,o),
(205,161,c),
(204,158,o),
(204,155,o),
(204,152,cs),
(204,128,o),
(223,110,o),
(246,110,cs),
(256,110,ls),
(280,110,o),
(299,128,o),
(299,152,cs),
(299,169,o),
(289,184,o),
(274,191,c),
(274,218,l),
(263,218,l),
(261,221,l),
(270,230,l),
(216,284,l),
(216,300,l),
(176,300,l),
(181,303,o),
(184,308,o),
(184,314,cs),
(184,323,o),
(177,331,o),
(168,331,cs),
(151,331,ls),
(142,331,o),
(135,323,o),
(135,314,cs),
(135,308,o),
(138,303,o),
(143,300,c),
(103,300,l),
(103,284,l),
(52,207,l),
(56,205,l),
(51,206,o),
(45,204,o),
(42,199,cs),
(38,193,o),
(40,185,o),
(46,181,cs),
(46,180,o),
(47,180,o),
(48,179,c),
(39,117,l),
(37,117,o),
(34,116,o),
(33,115,c),
(33,118,ls),
(33,123,o),
(29,128,o),
(24,128,cs),
(19,128,o),
(14,123,o),
(14,118,cs),
(14,113,o),
(19,109,o),
(24,109,cs),
(25,109,l),
(22,104,o),
(20,99,o),
(20,94,cs),
(20,86,o),
(24,80,o),
(29,75,c),
(25,74,o),
(22,73,o),
(19,71,c),
(19,71,ls),
(19,76,o),
(15,80,o),
(10,80,cs),
(4,80,o),
(0,76,o),
(0,71,cs),
(0,66,o),
(4,62,o),
(10,62,cs),
(10,62,o),
(11,62,o),
(12,62,c),
(10,59,o),
(10,56,o),
(10,53,cs),
(10,44,o),
(15,36,o),
(22,32,c),
(17,32,o),
(13,27,o),
(13,22,cs),
(13,17,o),
(18,12,o),
(23,12,c),
(21,11,o),
(19,8,o),
(19,6,cs),
(19,3,o),
(22,0,o),
(25,0,cs)
);
},
{
closed = 1;
nodes = (
(52,98,o),
(49,101,o),
(49,104,cs),
(49,106,o),
(52,108,o),
(55,108,cs),
(58,108,o),
(60,106,o),
(60,104,cs),
(60,101,o),
(58,98,o),
(55,98,cs)
);
},
{
closed = 1;
nodes = (
(216,183,o),
(216,185,o),
(216,188,cs),
(216,209,o),
(199,225,o),
(178,225,cs),
(216,225,l),
(216,257,l),
(249,225,l),
(244,224,o),
(241,221,o),
(240,218,c),
(228,218,l),
(228,190,l),
(223,188,o),
(219,185,o),
(215,181,c)
);
},
{
closed = 1;
nodes = (
(238,207,l),
(239,207,l),
(241,203,o),
(246,199,o),
(251,199,cs),
(257,199,o),
(262,203,o),
(264,207,c),
(265,207,l),
(265,194,l),
(262,194,o),
(259,194,o),
(256,194,cs),
(246,194,ls),
(243,194,o),
(241,194,o),
(238,194,c)
);
}
);
width = 299;
},
{
layerId = "054B8FAF-C17B-419D-B2A9-68F3C3D62E10";
shapes = (
{
closed = 1;
nodes = (
(42,150,o),
(75,176,o),
(75,227,c),
(75,252,o),
(67,279,o),
(54,300,c),
(36,270,l),
(27,286,l),
(6,251,l),
(-20,296,l),
(-35,270,l),
(-53,300,l),
(-66,279,o),
(-74,252,o),
(-74,227,c),
(-74,176,o),
(-40,150,o),
(1,150,c)
);
},
{
closed = 1;
nodes = (
(-12,165,o),
(-28,170,o),
(-39,182,c),
(-51,193,o),
(-58,210,o),
(-58,231,c),
(-43,231,l),
(-43,213,o),
(-37,200,o),
(-29,192,c),
(-21,184,o),
(-9,180,o),
(5,180,c),
(5,165,l)
);
}
);
width = 1;
}
);
unicode = 81;
},
{
glyphname = R;
lastChange = "2024-02-06 15:28:32 +0000";
layers = (
{
layerId = m01;
shapes = (
{
closed = 1;
nodes = (
(29,0,l),
(29,14,l),
(43,14,l),
(43,0,l),
(52,0,l),
(52,44,l),
(44,44,ls),
(51,44,o),
(57,48,o),
(59,54,c),
(62,48,o),
(68,44,o),
(75,44,cs),
(66,44,l),
(66,0,l),
(76,0,l),
(76,14,l),
(90,14,l),
(90,0,l),
(118,0,l),
(118,19,l),
(100,19,l),
(100,44,l),
(91,44,ls),
(100,44,o),
(108,52,o),
(108,61,cs),
(108,70,o),
(100,77,o),
(91,77,cs),
(91,77,l),
(105,83,o),
(115,96,o),
(115,113,cs),
(115,134,o),
(99,150,o),
(78,150,cs),
(40,150,ls),
(19,150,o),
(3,134,o),
(3,113,cs),
(3,96,o),
(13,83,o),
(28,77,c),
(18,77,o),
(11,70,o),
(11,61,cs),
(11,52,o),
(18,44,o),
(28,44,cs),
(19,44,l),
(19,19,l),
(0,19,l),
(0,0,l)
);
},
{
closed = 1;
nodes = (
(58,71,o),
(55,74,o),
(52,75,c),
(67,75,l),
(63,74,o),
(61,71,o),
(59,67,c)
);
}
);
width = 118;
},
{
layerId = "054B8FAF-C17B-419D-B2A9-68F3C3D62E10";
shapes = (
{
closed = 1;
nodes = (
(43,0,o),
(53,9,o),
(53,22,cs),
(53,150,l),
(9,150,l),
(9,22,ls),
(9,9,o),
(19,0,o),
(31,0,cs)
);
},
{
closed = 1;
nodes = (
(-38,10,o),
(-44,16,o),
(-44,24,cs),
(-44,37,l),
(-16,37,l),
(-16,24,ls),
(-16,16,o),
(-23,10,o),
(-30,10,cs)
);
},
{
closed = 1;
nodes = (
(-44,60,l),
(-16,60,l),
(-16,50,l),
(-44,50,l)
);
},
{
closed = 1;
nodes = (
(-18,0,o),
(-8,9,o),
(-8,22,cs),
(-8,150,l),
(-52,150,l),
(-52,22,ls),
(-52,9,o),
(-42,0,o),
(-30,0,cs)
);
},
{
closed = 1;
nodes = (
(-44,78,l),
(-16,78,l),
(-16,68,l),
(-44,68,l)
);
},
{
closed = 1;
nodes = (
(23,10,o),
(17,16,o),
(17,24,cs),
(17,37,l),
(45,37,l),
(45,24,ls),
(45,16,o),
(38,10,o),
(31,10,cs)
);
},
{
closed = 1;
nodes = (
(17,60,l),
(45,60,l),
(45,50,l),
(17,50,l)
);
},
{
closed = 1;
nodes = (
(17,78,l),
(45,78,l),
(45,68,l),
(17,68,l)
);
}
);
width = 1;
}
);
unicode = 82;
},
{
glyphname = S;
lastChange = "2024-02-06 15:28:32 +0000";
layers = (
{
layerId = m01;
shapes = (
{
closed = 1;
nodes = (
(47,400,l),
(47,438,l),
(60,442,o),
(71,453,o),
(74,466,c),
(81,466,ls),
(86,466,o),
(90,470,o),
(90,475,cs),
(90,480,o),
(86,485,o),
(81,485,cs),
(74,485,l),
(72,492,o),
(68,498,o),
(62,504,c),
(65,504,l),
(59,534,l),
(40,534,l),
(40,537,l),
(43,535,l),
(47,539,l),
(44,542,l),
(48,542,l),
(48,548,l),
(44,548,l),
(47,551,l),
(43,555,l),
(40,552,l),
(40,556,l),
(34,556,l),
(34,552,l),
(31,555,l),
(27,551,l),
(29,548,l),
(26,548,l),
(26,542,l),
(29,542,l),
(27,539,l),
(31,535,l),
(34,537,l),
(34,534,l),
(16,534,l),
(9,504,l),
(14,504,l),
(5,497,o),
(0,486,o),
(0,475,cs),
(0,458,o),
(12,443,o),
(28,439,c),
(28,400,l)
);
},
{
closed = 1;
nodes = (
(25,475,o),
(20,480,o),
(20,485,cs),
(20,489,o),
(25,494,o),
(30,494,cs),
(35,494,o),
(39,489,o),
(39,485,cs),
(39,480,o),
(35,475,o),
(30,475,cs)
);
}
);
width = 90;
},
{
layerId = "054B8FAF-C17B-419D-B2A9-68F3C3D62E10";
shapes = (
{
closed = 1;
nodes = (
(28,300,o),
(51,323,o),
(51,351,c),
(36,363,l),
(41,381,l),
(22,382,l),
(16,400,l),
(0,389,l),
(-16,400,l),
(-22,382,l),
(-42,381,l),
(-36,363,l),
(-51,351,l),
(-51,323,o),
(-29,300,o),
(0,300,cs)
);
},
{
closed = 1;
nodes = (
(-32,322,o),
(-38,328,o),
(-38,336,cs),
(-38,343,o),
(-32,349,o),
(-25,349,cs),
(-23,349,l),
(-24,350,o),
(-25,352,o),
(-25,354,cs),
(-25,359,o),
(-20,363,o),
(-15,363,cs),
(-10,363,o),
(-6,359,o),
(-6,354,cs),
(-6,349,o),
(-10,345,o),
(-15,345,cs),
(-16,345,l),
(-13,343,o),
(-12,339,o),
(-12,336,cs),
(-12,328,o),
(-18,322,o),
(-25,322,cs)
);
},
{
closed = 1;
nodes = (
(-8,343,l),
(8,343,l),
(0,336,l)
);
},
{
closed = 1;
nodes = (
(-11,349,o),
(-9,351,o),
(-9,354,cs),
(-9,356,o),
(-11,358,o),
(-14,358,cs),
(-16,358,o),
(-18,356,o),
(-18,354,cs),
(-18,351,o),
(-16,349,o),
(-14,349,cs)
);
},
{
closed = 1;
nodes = (
(17,322,o),
(11,328,o),
(11,336,cs),
(11,339,o),
(13,343,o),
(15,345,c),
(10,345,o),
(6,349,o),
(6,354,cs),
(6,359,o),
(10,363,o),
(15,363,cs),
(20,363,o),
(24,359,o),
(24,354,cs),
(24,352,o),
(23,350,o),
(22,349,c),
(25,349,ls),
(32,349,o),
(38,343,o),
(38,336,cs),
(38,328,o),
(32,322,o),
(25,322,cs)
);
},
{
closed = 1;
nodes = (
(16,349,o),
(18,351,o),
(18,354,cs),
(18,356,o),
(16,358,o),
(13,358,cs),
(11,358,o),
(9,356,o),
(9,354,cs),
(9,351,o),
(11,349,o),
(13,349,cs)
);
}
);
width = 0;
}
);
unicode = 83;
},
{
glyphname = T;
lastChange = "2024-02-06 15:28:32 +0000";
layers = (
{
layerId = m01;
shapes = (
{
closed = 1;
nodes = (
(270,127,l),
(270,212,l),
(245,212,l),
(245,249,l),
(234,249,l),
(232,254,o),
(227,257,o),
(223,257,cs),
(220,257,o),
(218,256,o),
(216,255,c),
(223,262,l),
(167,318,l),
(160,327,o),
(149,332,o),
(137,332,cs),
(140,332,l),
(146,362,l),
(90,362,l),
(97,332,l),
(100,332,ls),
(79,332,o),
(62,315,o),
(62,294,cs),
(62,273,o),
(79,257,o),
(100,257,c),
(79,257,o),
(62,240,o),
(62,219,cs),
(62,198,o),
(79,182,o),
(100,182,cs),
(137,182,ls),
(158,182,o),
(175,198,o),
(175,219,cs),
(175,240,o),
(158,257,o),
(137,257,cs),
(155,257,o),
(170,269,o),
(173,285,c),
(209,249,l),
(199,249,l),
(199,212,l),
(175,212,l),
(175,127,l)
);
},
{
closed = 1;
nodes = (
(62,249,l),
(62,332,l),
(47,332,l),
(53,337,o),
(59,345,o),
(59,355,cs),
(59,370,o),
(47,382,o),
(32,382,cs),
(16,382,o),
(4,370,o),
(4,355,cs),
(4,345,o),
(9,337,o),
(16,332,c),
(0,332,l),
(0,249,l)
);
},
{
closed = 1;
nodes = (
(209,239,l),
(210,239,l),
(212,234,o),
(217,231,o),
(223,231,cs),
(228,231,o),
(233,234,o),
(235,239,c),
(236,239,l),
(236,212,l),
(209,212,l)
);
},
{
closed = 1;
nodes = (
(211,250,l),
(211,249,l),
(210,249,l)
);
}
);
width = 270;
},
{
layerId = "054B8FAF-C17B-419D-B2A9-68F3C3D62E10";
shapes = (
{
closed = 1;
nodes = (
(60,150,l),
(78,153,o),
(91,168,o),
(91,186,cs),
(91,264,ls),
(91,284,o),
(75,300,o),
(55,300,c),
(55,264,l),
(46,285,o),
(25,300,o),
(1,300,cs),
(-24,300,o),
(-46,284,o),
(-54,262,c),
(-54,300,l),
(-74,300,o),
(-90,284,o),
(-90,264,cs),
(-90,186,ls),
(-90,168,o),
(-76,152,o),
(-58,150,c)
);
},
{
closed = 1;
nodes = (
(-23,187,o),
(-42,208,o),
(-42,235,cs),
(-42,261,o),
(-23,283,o),
(1,283,cs),
(25,283,o),
(44,261,o),
(44,235,cs),
(44,208,o),
(25,187,o),
(1,187,cs)
);
}
);
width = 1;
}
);
unicode = 84;
},
{
glyphname = U;
lastChange = "2024-02-06 15:28:32 +0000";
layers = (
{
layerId = m01;
shapes = (
{
closed = 1;
nodes = (
(54,0,l),
(54,75,l),
(59,75,l),
(59,0,l),
(112,0,l),
(112,19,l),
(93,19,l),
(93,75,l),
(75,75,ls),
(96,75,o),
(112,92,o),
(112,113,cs),
(112,134,o),
(96,150,o),
(75,150,cs),
(37,150,ls),
(16,150,o),
(0,134,o),
(0,113,cs),
(0,92,o),
(16,75,o),
(37,75,cs),
(20,75,l),
(20,19,l),
(1,19,l),
(1,0,l)
);
}
);
width = 112;
},
{
layerId = "054B8FAF-C17B-419D-B2A9-68F3C3D62E10";
shapes = (
{
closed = 1;
nodes = (
(34,20,l),
(34,0,l),
(47,0,l),
(47,95,l),
(56,98,o),
(62,106,o),
(62,115,cs),
(62,150,l),
(20,150,l),
(20,115,ls),
(20,106,o),
(26,98,o),
(34,95,c),
(34,44,l),
(2,44,l),
(2,31,l),
(26,31,l),
(4,9,l),
(13,0,l)
);
},
{
closed = 1;
nodes = (
(-29,20,l),
(-29,0,l),
(-16,0,l),
(-16,95,l),
(-8,98,o),
(-2,106,o),
(-2,115,cs),
(-2,150,l),
(-44,150,l),
(-44,115,ls),
(-44,106,o),
(-38,98,o),
(-29,95,c),
(-29,44,l),
(-61,44,l),
(-61,31,l),
(-37,31,l),
(-59,9,l),
(-50,0,l)
);
}
);
width = 1;
}
);
unicode = 85;
},
{
glyphname = V;
lastChange = "2024-02-06 15:28:32 +0000";
layers = (
{
layerId = m01;
shapes = (
{
closed = 1;
nodes = (
(70,400,l),
(70,438,l),
(120,438,l),
(114,468,ls),
(109,494,o),
(86,513,o),
(60,513,cs),
(34,513,o),
(11,494,o),
(6,468,cs),
(0,438,l),
(51,438,l),
(51,400,l)
);
},
{
closed = 1;
nodes = (
(35,460,l),
(56,460,l),
(56,449,l),
(35,449,l)
);
},
{
closed = 1;
nodes = (
(65,460,l),
(86,460,l),
(86,449,l),
(65,449,l)
);
},
{
closed = 1;
nodes = (
(56,475,o),
(51,480,o),
(51,485,cs),
(51,489,o),
(56,494,o),
(61,494,cs),
(65,494,o),
(70,489,o),
(70,485,cs),
(70,480,o),
(65,475,o),
(61,475,cs)
);
}
);
width = 120;
},
{
layerId = "054B8FAF-C17B-419D-B2A9-68F3C3D62E10";
shapes = (
{
closed = 1;
nodes = (
(38,300,l),
(38,352,ls),
(38,369,o),
(26,383,o),
(9,386,c),
(10,387,o),
(10,388,o),
(10,390,cs),
(10,395,o),
(5,400,o),
(0,400,cs),
(-5,400,o),
(-10,395,o),
(-10,390,cs),
(-10,388,o),
(-10,387,o),
(-9,386,c),
(-26,383,o),
(-38,369,o),
(-38,352,cs),
(-38,300,l)
);
},
{
closed = 1;
nodes = (
(9,327,l),
(0,333,l),
(-9,327,l),
(0,322,l)
);
},
{
closed = 1;
nodes = (
(-10,337,o),
(-7,339,o),
(-7,342,c),
(-4,342,l),
(-12,357,l),
(-21,342,l),
(-17,342,l),
(-17,339,o),
(-15,337,o),
(-12,337,cs)
);
},
{
closed = 1;
nodes = (
(-16,317,o),
(-30,330,o),
(-30,347,cs),
(-30,361,l),
(30,361,l),
(30,347,ls),
(30,330,o),
(16,317,o),
(0,317,cs)
);
},
{
closed = 1;
nodes = (
(15,337,o),
(18,339,o),
(18,342,c),
(21,342,l),
(12,357,l),
(4,342,l),
(7,342,l),
(7,339,o),
(10,337,o),
(12,337,cs)
);
}
);
width = 0;
}
);
unicode = 86;
},
{
glyphname = W;
lastChange = "2024-02-06 15:28:32 +0000";
layers = (
{
layerId = m01;
shapes = (
{
closed = 1;
nodes = (
(112,200,l),
(112,283,l),
(0,283,l),
(0,200,l)
);
},
{
closed = 1;
nodes = (
(112,294,l),
(112,305,l),
(0,305,l),
(0,294,l)
);
},
{
closed = 1;
nodes = (
(112,316,l),
(112,328,l),
(0,328,l),
(0,316,l)
);
},
{
closed = 1;
nodes = (
(112,339,l),
(112,350,l),
(0,350,l),
(0,339,l)
);
}
);
width = 112;
},
{
layerId = "054B8FAF-C17B-419D-B2A9-68F3C3D62E10";
shapes = (
{
closed = 1;
nodes = (
(10,162,l),
(38,142,o),
(75,147,o),
(99,177,c),
(60,225,l),
(99,273,l),
(75,303,o),
(38,308,o),
(10,288,c),
(0,300,l),
(-10,288,l),
(-38,308,o),
(-75,303,o),
(-99,273,c),
(-60,225,l),
(-99,177,l),
(-75,147,o),
(-38,142,o),
(-10,162,c),
(0,150,l)
);
},
{
closed = 1;
nodes = (
(-29,173,o),
(-52,196,o),
(-52,225,cs),
(-52,254,o),
(-29,277,o),
(0,277,cs),
(29,277,o),
(52,254,o),
(52,225,cs),
(52,196,o),
(29,173,o),
(0,173,cs)
);
},
{
closed = 1;
nodes = (
(16,195,o),
(30,209,o),
(30,225,cs),
(30,241,o),
(16,255,o),
(0,255,cs),
(-16,255,o),
(-30,241,o),
(-30,225,cs),
(-30,209,o),
(-16,195,o),
(0,195,cs)
);
}
);
width = 0;
}
);
unicode = 87;
},
{
glyphname = X;
lastChange = "2024-02-06 15:28:32 +0000";
layers = (
{
layerId = m01;
shapes = (
{
closed = 1;
nodes = (
(71,0,o),
(83,11,o),
(85,26,c),
(112,26,l),
(112,150,l),
(76,150,l),
(76,49,l),
(71,54,o),
(64,57,o),
(56,57,cs),
(48,57,o),
(41,54,o),
(36,49,c),
(36,150,l),
(0,150,l),
(0,26,l),
(28,26,l),
(29,11,o),
(41,0,o),
(56,0,cs)
);
},
{
closed = 1;
nodes = (
(51,19,o),
(46,23,o),
(46,29,cs),
(46,34,o),
(51,38,o),
(56,38,cs),
(61,38,o),
(66,34,o),
(66,29,cs),
(66,23,o),
(61,19,o),
(56,19,cs)
);
}
);
width = 112;
},
{
layerId = "054B8FAF-C17B-419D-B2A9-68F3C3D62E10";
shapes = (
{
closed = 1;
nodes = (
(-7,43,l),
(-7,43,o),
(-5,78,o),
(-2,106,c),
(-1,110,o),
(0,115,o),
(0,120,c),
(1,115,o),
(1,110,o),
(2,106,c),
(5,78,o),
(7,43,o),
(7,43,c),
(74,43,l),
(74,43,o),
(62,139,o),
(11,148,c),
(6,149,o),
(2,150,o),
(0,149,c),
(-2,150,o),
(-6,149,o),
(-11,148,c),
(-62,139,o),
(-74,43,o),
(-74,43,c)
);
},
{
closed = 1;
nodes = (
(-20,0,l),
(-20,18,l),
(-15,18,l),
(-15,0,l),
(-8,0,l),
(-8,33,l),
(-29,33,l),
(-27,18,l),
(-45,18,l),
(-50,18,o),
(-53,14,o),
(-53,10,c),
(-53,0,l)
);
},
{
closed = 1;
nodes = (
(15,0,l),
(15,18,l),
(20,18,l),
(20,0,l),
(54,0,l),
(54,10,l),
(54,14,o),
(50,18,o),
(45,18,c),
(27,18,l),
(29,33,l),
(8,33,l),
(8,0,l)
);
}
);
width = 0;
}
);
unicode = 88;
},
{
glyphname = Y;
lastChange = "2024-02-06 15:28:32 +0000";
layers = (
{
layerId = m01;
shapes = (
{
closed = 1;
nodes = (
(89,450,l),
(89,525,l),
(14,525,l),
(14,497,l),
(0,497,l),
(0,479,l),
(14,479,l),
(14,450,l)
);
},
{
closed = 1;
nodes = (
(46,467,o),
(42,472,o),
(42,477,cs),
(42,482,o),
(46,486,o),
(52,486,cs),
(56,486,o),
(61,482,o),
(61,477,cs),
(61,472,o),
(56,467,o),
(52,467,cs)
);
}
);
width = 89;
},
{
layerId = "054B8FAF-C17B-419D-B2A9-68F3C3D62E10";
shapes = (
{
closed = 1;
nodes = (
(-83,300,l),
(-83,328,l),
(-77,328,l),
(-77,300,l),
(-70,300,l),
(-70,328,l),
(-65,328,l),
(-65,300,l),
(-58,300,l),
(-58,328,l),
(-52,328,l),
(-52,300,l),
(-36,300,l),
(-36,333,l),
(-34,315,o),
(-19,300,o),
(0,300,cs),
(19,300,o),
(34,314,o),
(35,333,c),
(35,300,l),
(50,300,l),
(50,328,l),
(56,328,l),
(56,300,l),
(63,300,l),
(63,328,l),
(68,328,l),
(68,300,l),
(75,300,l),
(75,328,l),
(81,328,l),
(81,300,l),
(101,300,l),
(101,355,o),
(56,400,o),
(0,400,cs),
(-56,400,o),
(-101,355,o),
(-101,300,c)
);
},
{
closed = 1;
nodes = (
(-21,326,o),
(-23,328,o),
(-23,331,c),
(-22,334,o),
(-19,337,o),
(-15,337,cs),
(-11,337,o),
(-8,334,o),
(-6,331,c),
(-7,328,o),
(-9,326,o),
(-11,325,c),
(-10,326,o),
(-10,327,o),
(-10,328,cs),
(-10,331,o),
(-12,333,o),
(-15,333,cs),
(-18,333,o),
(-20,331,o),
(-20,328,cs),
(-20,327,o),
(-19,326,o),
(-19,325,c)
);
},
{
closed = 1;
nodes = (
(-3,342,l),
(3,342,l),
(3,316,l),
(-3,316,l)
);
},
{
closed = 1;
nodes = (
(-36,370,l),
(35,370,l),
(35,338,l),
(34,356,o),
(19,370,o),
(0,370,cs),
(-19,370,o),
(-34,356,o),
(-36,338,c)
);
},
{
closed = 1;
nodes = (
(8,326,o),
(7,328,o),
(6,331,c),
(7,334,o),
(10,337,o),
(14,337,cs),
(18,337,o),
(22,334,o),
(23,331,c),
(22,328,o),
(20,326,o),
(18,325,c),
(19,326,o),
(19,327,o),
(19,328,cs),
(19,331,o),
(17,333,o),
(14,333,cs),
(12,333,o),
(9,331,o),
(9,328,cs),
(9,327,o),
(10,326,o),
(10,325,c)
);
},
{
closed = 1;
nodes = (
);
}
);
width = 0;
}
);
unicode = 89;
},
{
glyphname = Z;
lastChange = "2024-02-06 15:28:32 +0000";
layers = (
{
layerId = m01;
shapes = (
{
closed = 1;
nodes = (
(185,200,ls),
(237,200,o),
(279,242,o),
(279,294,cs),
(279,310,o),
(275,324,o),
(268,337,c),
(273,334,o),
(277,333,o),
(283,333,cs),
(298,333,o),
(310,345,o),
(310,361,cs),
(310,376,o),
(298,388,o),
(283,388,cs),
(268,388,o),
(256,376,o),
(256,361,cs),
(256,358,o),
(256,357,o),
(256,355,c),
(239,375,o),
(214,388,o),
(185,388,cs),
(125,388,ls),
(73,388,o),
(31,346,o),
(31,294,cs),
(31,287,o),
(32,281,o),
(33,275,c),
(31,276,o),
(29,276,o),
(28,276,cs),
(12,276,o),
(0,264,o),
(0,249,cs),
(0,233,o),
(12,221,o),
(28,221,cs),
(38,221,o),
(47,227,o),
(52,236,c),
(69,214,o),
(95,200,o),
(125,200,cs)
);
},
{
closed = 1;
nodes = (
(150,290,o),
(145,295,o),
(145,300,cs),
(145,304,o),
(150,309,o),
(155,309,cs),
(160,309,o),
(164,304,o),
(164,300,cs),
(164,295,o),
(160,290,o),
(155,290,cs)
);
},
{
closed = 1;
nodes = (
(150,324,o),
(145,328,o),
(145,334,cs),
(145,338,o),
(150,343,o),
(155,343,cs),
(160,343,o),
(164,338,o),
(164,334,cs),
(164,328,o),
(160,324,o),
(155,324,cs)
);
}
);
width = 310;
},
{
layerId = "054B8FAF-C17B-419D-B2A9-68F3C3D62E10";
shapes = (
{
closed = 1;
nodes = (
(94,150,l),
(57,237,l),
(79,232,l),
(79,275,l),
(94,275,l),
(94,300,l),
(30,300,l),
(30,287,o),
(20,278,o),
(8,278,cs),
(-9,278,ls),
(-21,278,o),
(-31,287,o),
(-31,300,c),
(-94,300,l),
(-94,275,l),
(-81,275,l),
(-81,232,l),
(-57,237,l),
(-94,150,l)
);
}
);
width = 0;
}
);
unicode = 90;
},
{
glyphname = a;
lastChange = "2024-02-06 15:28:32 +0000";
layers = (
{
layerId = m01;
shapes = (
{
closed = 1;
nodes = (
(109,0,l),
(109,83,l),
(139,83,l),
(139,0,l),
(248,0,l),
(248,47,l),
(201,47,l),
(201,150,l),
(47,150,l),
(47,47,l),
(0,47,l),
(0,0,l)
);
}
);
width = 248;
},
{
layerId = "054B8FAF-C17B-419D-B2A9-68F3C3D62E10";
shapes = (
{
closed = 1;
nodes = (
(-88,0,o),
(-85,3,o),
(-85,3,c),
(-85,3,o),
(-79,0,o),
(-73,0,cs),
(-68,0,o),
(-65,1,o),
(-63,2,c),
(-61,2,o),
(-59,3,o),
(-57,3,cs),
(-53,3,o),
(-48,3,o),
(-42,2,cs),
(-32,1,o),
(-20,0,o),
(-9,0,cs),
(1,0,o),
(-1,16,o),
(-5,23,cs),
(-8,27,o),
(-9,35,o),
(-10,42,c),
(-2,42,l),
(-2,150,l),
(-87,150,l),
(-87,42,l),
(-41,42,l),
(-42,33,l),
(-84,14,ls),
(-86,13,o),
(-88,13,o),
(-90,12,c),
(-96,12,l),
(-96,12,o),
(-99,12,o),
(-101,10,cs),
(-103,8,o),
(-105,0,o),
(-96,0,cs)
);
},
{
closed = 1;
nodes = (
(22,0,o),
(34,1,o),
(43,2,cs),
(49,3,o),
(55,3,o),
(58,3,cs),
(60,3,o),
(62,2,o),
(64,2,c),
(67,1,o),
(70,0,o),
(74,0,cs),
(81,0,o),
(86,3,o),
(86,3,c),
(86,3,o),
(89,0,o),
(98,0,cs),
(106,0,o),
(104,8,o),
(103,10,c),
(101,12,o),
(98,12,o),
(97,12,cs),
(92,12,l),
(89,13,o),
(87,13,o),
(86,14,c),
(43,33,l),
(43,42,l),
(88,42,l),
(88,150,l),
(3,150,l),
(3,42,l),
(11,42,l),
(11,35,o),
(10,27,o),
(7,23,cs),
(2,16,o),
(1,0,o),
(11,0,cs)
);
}
);
width = 1;
}
);
unicode = 97;
},
{
glyphname = b;
lastChange = "2024-02-06 15:28:32 +0000";
layers = (
{
layerId = m01;
shapes = (
{
closed = 1;
nodes = (
(72,400,l),
(72,438,l),
(88,443,o),
(100,458,o),
(100,475,cs),
(100,482,o),
(99,488,o),
(96,494,c),
(100,494,l),
(100,510,l),
(88,510,l),
(88,527,l),
(74,527,l),
(74,543,l),
(52,543,l),
(52,527,l),
(38,527,l),
(38,510,l),
(25,510,l),
(25,494,l),
(30,494,l),
(28,491,o),
(28,488,o),
(27,485,c),
(0,485,l),
(0,466,l),
(26,466,l),
(30,453,o),
(40,442,o),
(53,439,c),
(53,400,l)
);
},
{
closed = 1;
nodes = (
(46,479,o),
(42,483,o),
(42,488,cs),
(42,490,o),
(43,492,o),
(44,494,c),
(58,494,l),
(60,492,o),
(61,490,o),
(61,488,cs),
(61,483,o),
(56,479,o),
(52,479,cs)
);
}
);
width = 100;
},
{
layerId = "054B8FAF-C17B-419D-B2A9-68F3C3D62E10";
shapes = (
{
closed = 1;
nodes = (
(23,300,o),
(43,304,o),
(48,323,c),
(43,319,o),
(37,316,o),
(31,316,cs),
(17,316,o),
(6,327,o),
(6,341,cs),
(6,344,l),
(13,344,l),
(13,341,ls),
(13,331,o),
(21,323,o),
(31,323,cs),
(40,323,o),
(48,330,o),
(49,339,c),
(47,351,o),
(40,358,o),
(30,362,c),
(30,380,l),
(33,381,o),
(35,385,o),
(35,389,cs),
(35,395,o),
(30,400,o),
(24,400,cs),
(18,400,o),
(13,395,o),
(13,389,cs),
(13,385,o),
(15,381,o),
(19,380,c),
(19,365,l),
(13,366,o),
(6,367,o),
(0,367,cs),
(-7,367,o),
(-13,366,o),
(-19,365,c),
(-19,380,l),
(-16,381,o),
(-14,385,o),
(-14,389,cs),
(-14,395,o),
(-18,400,o),
(-24,400,cs),
(-30,400,o),
(-35,395,o),
(-35,389,cs),
(-35,385,o),
(-33,381,o),
(-30,380,c),
(-30,362,l),
(-40,358,o),
(-47,351,o),
(-49,339,c),
(-48,330,o),
(-40,323,o),
(-31,323,cs),
(-21,323,o),
(-13,331,o),
(-13,341,cs),
(-13,344,l),
(-6,344,l),
(-6,341,ls),
(-6,327,o),
(-17,316,o),
(-31,316,cs),
(-38,316,o),
(-44,319,o),
(-48,323,c),
(-43,304,o),
(-24,300,o),
(0,300,cs)
);
},
{
closed = 1;
nodes = (
(-35,331,o),
(-37,332,o),
(-38,333,cs),
(-40,335,o),
(-41,337,o),
(-41,339,c),
(-42,341,o),
(-42,343,o),
(-41,345,cs),
(-40,347,o),
(-39,349,o),
(-37,350,cs),
(-35,351,o),
(-33,352,o),
(-31,352,c),
(-31,341,l),
(-20,341,l),
(-20,339,o),
(-21,337,o),
(-22,335,cs),
(-23,333,o),
(-25,332,o),
(-27,331,cs),
(-29,330,o),
(-31,330,o),
(-33,330,c)
);
},
{
closed = 1;
nodes = (
(-4,313,o),
(-6,316,o),
(-6,320,cs),
(-6,323,o),
(-4,326,o),
(0,326,cs),
(3,326,o),
(6,323,o),
(6,320,cs),
(6,316,o),
(3,313,o),
(0,313,cs)
);
},
{
closed = 1;
nodes = (
(23,333,l),
(20,339,l),
(20,341,o),
(20,343,o),
(21,345,cs),
(22,347,o),
(23,349,o),
(25,350,cs),
(26,351,o),
(28,352,o),
(31,352,c),
(31,341,l),
(41,341,l),
(41,339,o),
(41,337,o),
(39,335,c),
(38,333,o),
(37,332,o),
(35,331,cs),
(33,330,o),
(31,330,o),
(28,330,c)
);
}
);
width = 0;
}
);
unicode = 98;
},
{
glyphname = c;
lastChange = "2024-02-06 15:28:32 +0000";
layers = (
{
layerId = m01;
shapes = (
{
closed = 1;
nodes = (
(242,122,ls),
(273,122,o),
(299,148,o),
(299,178,cs),
(299,184,l),
(315,180,l),
(317,187,l),
(320,183,o),
(324,180,o),
(329,180,cs),
(337,180,o),
(342,186,o),
(342,193,cs),
(342,200,o),
(337,206,o),
(329,206,cs),
(326,206,o),
(324,205,o),
(322,204,c),
(335,252,l),
(315,325,l),
(299,320,l),
(299,347,l),
(119,347,l),
(119,320,l),
(103,325,l),
(87,266,l),
(57,266,l),
(57,261,l),
(55,267,o),
(50,271,o),
(44,271,cs),
(41,271,o),
(39,271,o),
(38,269,c),
(38,280,l),
(0,280,l),
(4,234,l),
(35,234,l),
(35,245,l),
(38,244,o),
(41,242,o),
(44,242,cs),
(50,242,o),
(55,247,o),
(57,252,c),
(57,247,l),
(101,247,l),
(119,312,l),
(119,235,l),
(175,235,ls),
(144,235,o),
(119,209,o),
(119,178,cs),
(119,148,o),
(144,122,o),
(175,122,cs)
);
},
{
closed = 1;
nodes = (
(41,251,o),
(38,253,o),
(38,256,cs),
(38,259,o),
(41,262,o),
(44,262,cs),
(47,262,o),
(49,259,o),
(49,256,cs),
(49,253,o),
(47,251,o),
(44,251,cs)
);
},
{
closed = 1;
nodes = (
(293,214,o),
(270,235,o),
(242,235,cs),
(299,235,l),
(299,315,l),
(315,253,l),
(298,187,l)
);
}
);
width = 342;
},
{
layerId = "054B8FAF-C17B-419D-B2A9-68F3C3D62E10";
shapes = (
{
closed = 1;
nodes = (
(35,151,l),
(35,160,l),
(47,151,o),
(63,148,o),
(77,154,c),
(35,226,l),
(35,254,l),
(89,162,l),
(103,174,o),
(107,196,o),
(97,213,c),
(63,271,l),
(55,285,o),
(40,293,o),
(24,292,c),
(18,298,o),
(10,301,o),
(0,301,c),
(-9,301,o),
(-18,298,o),
(-24,292,c),
(-39,293,o),
(-55,286,o),
(-63,271,c),
(-97,213,l),
(-107,196,o),
(-103,174,o),
(-89,162,c),
(-35,256,l),
(-35,228,l),
(-77,154,l),
(-63,148,o),
(-46,151,o),
(-35,161,c),
(-35,151,l)
);
}
);
width = 0;
}
);
unicode = 99;
},
{
glyphname = d;
lastChange = "2024-02-06 15:28:32 +0000";
layers = (
{
layerId = m01;
shapes = (
{
closed = 1;
nodes = (
(164,0,l),
(164,11,l),
(138,11,l),
(138,20,l),
(164,20,l),
(164,31,l),
(101,31,l),
(101,53,l),
(102,52,o),
(104,52,o),
(105,52,cs),
(112,52,o),
(118,58,o),
(118,65,cs),
(118,72,o),
(112,78,o),
(105,78,cs),
(104,78,o),
(102,78,o),
(101,77,c),
(101,150,l),
(87,150,l),
(87,0,l)
);
},
{
closed = 1;
nodes = (
(77,0,l),
(77,150,l),
(63,150,l),
(63,77,l),
(62,78,o),
(60,78,o),
(59,78,cs),
(52,78,o),
(46,72,o),
(46,65,cs),
(46,58,o),
(52,52,o),
(59,52,cs),
(60,52,o),
(62,52,o),
(63,53,c),
(63,30,l),
(0,30,l),
(0,19,l),
(26,19,l),
(26,11,l),
(0,11,l),
(0,0,l)
);
}
);
width = 164;
},
{
layerId = "054B8FAF-C17B-419D-B2A9-68F3C3D62E10";
shapes = (
{
closed = 1;
nodes = (
(35,112,l),
(35,150,l),
(-35,150,l),
(-35,112,l)
);
},
{
closed = 1;
nodes = (
(-86,2,o),
(-82,2,o),
(-79,5,cs),
(-48,36,l),
(-45,38,o),
(-45,43,o),
(-48,46,cs),
(-51,49,o),
(-55,49,o),
(-58,46,cs),
(-89,15,ls),
(-92,12,o),
(-92,8,o),
(-89,5,cs)
);
},
{
closed = 1;
nodes = (
(4,0,o),
(7,3,o),
(7,7,cs),
(7,26,ls),
(7,30,o),
(4,33,o),
(0,33,cs),
(-4,33,o),
(-7,30,o),
(-7,26,cs),
(-7,7,ls),
(-7,3,o),
(-4,0,o),
(0,0,cs)
);
},
{
closed = 1;
nodes = (
(-62,89,ls),
(-58,89,o),
(-55,93,o),
(-55,97,cs),
(-55,101,o),
(-58,104,o),
(-62,104,cs),
(-87,104,ls),
(-91,104,o),
(-94,101,o),
(-94,97,cs),
(-94,93,o),
(-91,89,o),
(-87,89,cs)
);
},
{
closed = 1;
nodes = (
(12,44,o),
(23,50,o),
(29,60,c),
(-30,60,l),
(-23,50,o),
(-13,44,o),
(0,44,cs)
);
},
{
closed = 1;
nodes = (
(33,68,l),
(34,72,o),
(35,75,o),
(35,79,cs),
(35,81,l),
(-35,81,l),
(-35,79,ls),
(-35,75,o),
(-35,72,o),
(-33,68,c)
);
},
{
closed = 1;
nodes = (
(81,2,o),
(86,2,o),
(89,5,cs),
(92,8,o),
(92,12,o),
(89,15,cs),
(58,46,ls),
(55,49,o),
(50,49,o),
(48,46,cs),
(45,43,o),
(45,38,o),
(48,36,c),
(79,5,l)
);
},
{
closed = 1;
nodes = (
(35,89,l),
(35,104,l),
(-35,104,l),
(-35,89,l)
);
},
{
closed = 1;
nodes = (
(87,89,ls),
(91,89,o),
(94,93,o),
(94,97,cs),
(94,101,o),
(91,104,o),
(87,104,cs),
(62,104,ls),
(58,104,o),
(54,101,o),
(54,97,cs),
(54,93,o),
(58,89,o),
(62,89,cs)
);
}
);
width = 0;
}
);
unicode = 100;
},
{
glyphname = e;
lastChange = "2024-02-06 15:28:32 +0000";
layers = (
{
layerId = m01;
shapes = (
{
closed = 1;
nodes = (
(84,448,o),
(93,465,o),
(90,483,c),
(111,490,l),
(104,508,l),
(83,500,l),
(78,506,o),
(72,510,o),
(66,512,c),
(78,517,l),
(70,540,l),
(58,536,l),
(51,549,l),
(35,543,l),
(36,545,o),
(37,548,o),
(36,551,cs),
(34,555,o),
(29,558,o),
(24,556,cs),
(19,555,o),
(17,549,o),
(18,544,cs),
(19,541,o),
(22,540,o),
(24,539,c),
(9,533,l),
(11,519,l),
(0,514,l),
(9,491,l),
(21,496,l),
(16,486,o),
(15,474,o),
(18,463,cs),
(23,451,o),
(33,443,o),
(45,441,c),
(45,400,l),
(63,400,l),
(63,440,l),
(67,441,ls)
);
},
{
closed = 1;
nodes = (
(63,481,o),
(60,485,o),
(60,490,cs),
(60,495,o),
(63,500,o),
(69,500,cs),
(74,500,o),
(78,495,o),
(78,490,cs),
(78,485,o),
(74,481,o),
(69,481,cs)
);
}
);
width = 111;
},
{
layerId = "054B8FAF-C17B-419D-B2A9-68F3C3D62E10";
shapes = (
{
closed = 1;
nodes = (
(12,300,l),
(0,320,l),
(-11,300,l)
);
},
{
closed = 1;
nodes = (
(-20,346,o),
(-18,348,o),
(-18,351,cs),
(-18,354,o),
(-20,356,o),
(-23,356,cs),
(-26,356,o),
(-28,354,o),
(-28,351,cs),
(-28,348,o),
(-26,346,o),
(-23,346,cs)
);
},
{
closed = 1;
nodes = (
(-32,343,o),
(-39,350,o),
(-39,358,cs),
(-39,367,o),
(-32,374,o),
(-23,374,cs),
(-14,374,o),
(-7,367,o),
(-7,358,cs),
(-7,350,o),
(-14,343,o),
(-23,343,cs)
);
},
{
closed = 1;
nodes = (
(-5,381,l),
(5,381,l),
(5,331,l),
(-5,331,l)
);
},
{
closed = 1;
nodes = (
(26,346,o),
(29,348,o),
(29,351,cs),
(29,354,o),
(26,356,o),
(23,356,cs),
(21,356,o),
(18,354,o),
(18,351,cs),
(18,348,o),
(21,346,o),
(23,346,cs)
);
},
{
closed = 1;
nodes = (
(15,343,o),
(8,350,o),
(8,358,cs),
(8,367,o),
(15,374,o),
(23,374,cs),
(32,374,o),
(39,367,o),
(39,358,cs),
(39,350,o),
(32,343,o),
(23,343,cs)
);
},
{
closed = 1;
nodes = (
(-61,354,o),
(-49,320,o),
(-22,320,cs),
(23,320,ls),
(50,320,o),
(61,354,o),
(40,370,cs),
(0,400,l),
(-39,370,ls)
);
}
);
width = 1;
}
);
unicode = 101;
},
{
glyphname = f;
lastChange = "2024-02-06 15:28:32 +0000";
layers = (
{
layerId = m01;
shapes = (
{
closed = 1;
nodes = (
(201,200,ls),
(229,200,o),
(252,223,o),
(252,251,cs),
(252,258,o),
(251,264,o),
(249,270,c),
(251,268,o),
(255,266,o),
(258,266,cs),
(265,266,o),
(271,272,o),
(271,279,cs),
(271,286,o),
(265,292,o),
(258,292,cs),
(256,292,o),
(255,292,o),
(253,292,c),
(303,341,l),
(290,355,l),
(250,394,l),
(249,394,l),
(249,395,l),
(53,395,l),
(53,394,l),
(0,341,l),
(13,328,l),
(50,292,l),
(48,292,o),
(46,292,o),
(45,292,cs),
(37,292,o),
(31,286,o),
(31,279,cs),
(31,272,o),
(37,266,o),
(45,266,cs),
(48,266,o),
(51,268,o),
(54,269,c),
(51,264,o),
(50,258,o),
(50,251,cs),
(50,223,o),
(73,200,o),
(102,200,cs)
);
},
{
closed = 1;
nodes = (
(57,279,ls),
(57,283,o),
(56,286,o),
(54,289,c),
(66,301,l),
(26,341,l),
(53,368,l),
(53,318,l),
(99,318,l),
(99,303,l),
(81,302,o),
(66,292,o),
(57,278,c)
);
},
{
closed = 1;
nodes = (
(237,292,o),
(222,301,o),
(204,303,c),
(204,318,l),
(249,318,l),
(249,368,l),
(276,341,l),
(237,301,l),
(249,289,l),
(246,286,o),
(245,283,o),
(245,279,cs),
(245,278,l)
);
}
);
width = 303;
},
{
layerId = "054B8FAF-C17B-419D-B2A9-68F3C3D62E10";
shapes = (
{
closed = 1;
nodes = (
(98,198,l),
(42,284,ls),
(36,294,o),
(25,300,o),
(13,300,cs),
(-11,300,ls),
(-23,300,o),
(-34,294,o),
(-40,284,cs),
(-97,198,l)
);
},
{
closed = 1;
nodes = (
(-76,165,o),
(-68,167,o),
(-64,174,cs),
(-54,191,l),
(-85,191,l),
(-87,187,ls),
(-91,181,o),
(-89,173,o),
(-82,169,cs)
);
},
{
closed = 1;
nodes = (
(62,150,l),
(44,191,l),
(-42,191,l),
(-59,150,l)
);
},
{
closed = 1;
nodes = (
(90,173,o),
(92,181,o),
(88,187,cs),
(86,191,l),
(55,191,l),
(65,174,ls),
(69,167,o),
(77,165,o),
(83,169,cs)
);
}
);
width = 1;
}
);
unicode = 102;
},
{
glyphname = g;
lastChange = "2024-02-06 15:28:32 +0000";
layers = (
{
layerId = m01;
shapes = (
{
closed = 1;
nodes = (
(94,0,l),
(94,77,l),
(103,77,l),
(103,0,l),
(178,0,l),
(178,38,l),
(142,38,l),
(142,77,l),
(196,77,l),
(166,152,l),
(30,152,l),
(0,77,l),
(55,77,l),
(55,38,l),
(18,38,l),
(18,0,l)
);
}
);
width = 196;
},
{
layerId = "054B8FAF-C17B-419D-B2A9-68F3C3D62E10";
shapes = (
{
closed = 1;
nodes = (
(-17,0,l),
(-17,30,l),
(-6,30,l),
(-6,129,ls),
(-6,133,o),
(-3,135,o),
(0,135,cs),
(4,135,o),
(6,133,o),
(6,129,cs),
(6,30,l),
(17,30,l),
(17,0,l),
(71,0,l),
(71,10,o),
(63,19,o),
(52,19,cs),
(42,19,l),
(42,30,l),
(88,30,l),
(31,150,l),
(-30,150,l),
(-87,30,l),
(-41,30,l),
(-41,19,l),
(-51,19,ls),
(-62,19,o),
(-71,10,o),
(-71,0,c)
);
}
);
width = 1;
}
);
unicode = 103;
},
{
glyphname = h;
lastChange = "2024-02-06 15:28:32 +0000";
layers = (
{
layerId = m01;
shapes = (
{
closed = 1;
nodes = (
(104,400,o),
(119,412,o),
(123,429,c),
(152,429,l),
(152,447,l),
(123,447,l),
(121,453,o),
(119,458,o),
(115,462,c),
(124,462,l),
(124,481,ls),
(124,502,o),
(108,519,o),
(87,519,cs),
(66,519,o),
(49,502,o),
(49,481,c),
(0,481,l),
(0,462,l),
(58,462,l),
(53,456,o),
(49,447,o),
(49,438,cs),
(49,417,o),
(66,400,o),
(87,400,cs)
);
},
{
closed = 1;
nodes = (
(97,436,o),
(93,440,o),
(93,445,cs),
(93,450,o),
(97,455,o),
(102,455,cs),
(108,455,o),
(112,450,o),
(112,445,cs),
(112,440,o),
(108,436,o),
(102,436,cs)
);
}
);
width = 152;
},
{
layerId = "054B8FAF-C17B-419D-B2A9-68F3C3D62E10";
shapes = (
{
closed = 1;
nodes = (
(22,300,o),
(39,311,o),
(47,327,c),
(39,327,ls),
(31,327,o),
(24,328,o),
(17,331,c),
(3,318,l),
(-3,323,l),
(10,335,l),
(3,341,l),
(16,353,l),
(-10,365,l),
(-11,369,o),
(-12,373,o),
(-12,377,cs),
(-12,385,o),
(-10,393,o),
(-6,400,c),
(-29,396,o),
(-47,375,o),
(-47,351,cs),
(-47,323,o),
(-25,300,o),
(3,300,cs)
);
},
{
closed = 1;
nodes = (
(-28,343,o),
(-35,344,o),
(-40,349,c),
(-41,355,o),
(-38,361,o),
(-33,365,c),
(-27,368,o),
(-20,367,o),
(-15,363,c),
(-14,357,o),
(-16,350,o),
(-22,347,cs)
);
},
{
closed = 1;
nodes = (
(-23,350,l),
(-20,353,ls),
(-19,354,o),
(-18,355,o),
(-18,356,cs),
(-18,358,o),
(-19,359,o),
(-19,360,c),
(-25,357,l),
(-29,363,l),
(-32,360,l),
(-32,356,ls),
(-32,355,o),
(-31,353,o),
(-31,352,c),
(-30,351,o),
(-28,350,o),
(-27,350,cs)
);
}
);
width = 0;
}
);
unicode = 104;
},
{
glyphname = i;
lastChange = "2024-02-06 15:28:32 +0000";
layers = (
{
layerId = m01;
shapes = (
{
closed = 1;
nodes = (
(266,200,l),
(266,226,l),
(268,223,o),
(271,222,o),
(275,222,cs),
(282,222,o),
(288,228,o),
(288,235,cs),
(288,242,o),
(282,248,o),
(275,248,cs),
(273,248,o),
(271,248,o),
(270,247,c),
(320,297,l),
(267,350,l),
(266,349,l),
(266,350,l),
(126,350,l),
(22,245,l),
(20,247,o),
(17,248,o),
(14,248,cs),
(6,248,o),
(0,242,o),
(0,235,cs),
(0,228,o),
(6,222,o),
(14,222,cs),
(21,222,o),
(27,228,o),
(27,235,cs),
(27,238,o),
(26,240,o),
(25,241,c),
(35,232,l),
(108,304,l),
(63,200,l)
);
},
{
closed = 1;
nodes = (
(266,325,l),
(294,297,l),
(266,270,l)
);
}
);
width = 320;
},
{
layerId = "054B8FAF-C17B-419D-B2A9-68F3C3D62E10";
shapes = (
{
closed = 1;
nodes = (
(18,172,l),
(49,160,l),
(50,186,l),
(85,187,l),
(68,211,l),
(98,225,l),
(68,238,l),
(85,262,l),
(50,263,l),
(49,289,l),
(18,277,l),
(0,300,l),
(-18,277,l),
(-49,289,l),
(-49,263,l),
(-84,262,l),
(-68,238,l),
(-97,225,l),
(-68,211,l),
(-84,187,l),
(-49,186,l),
(-49,160,l),
(-18,172,l),
(0,150,l)
);
},
{
closed = 1;
nodes = (
(-24,181,o),
(-44,200,o),
(-44,225,cs),
(-44,249,o),
(-24,269,o),
(0,269,cs),
(24,269,o),
(44,249,o),
(44,225,cs),
(44,200,o),
(24,181,o),
(0,181,cs)
);
}
);
width = 1;
}
);
unicode = 105;
},
{
glyphname = j;
lastChange = "2024-02-06 15:28:32 +0000";
layers = (
{
layerId = m01;
shapes = (
{
closed = 1;
nodes = (
(88,0,o),
(96,8,o),
(96,17,cs),
(96,25,o),
(91,32,o),
(84,34,c),
(267,34,l),
(260,32,o),
(255,25,o),
(255,17,cs),
(255,8,o),
(262,0,o),
(272,0,cs),
(282,0,o),
(289,8,o),
(289,17,cs),
(289,25,o),
(284,32,o),
(277,34,c),
(293,34,l),
(293,50,l),
(274,50,l),
(274,86,l),
(238,86,l),
(238,150,l),
(194,150,l),
(194,50,l),
(97,50,l),
(149,150,l),
(100,150,l),
(61,75,l),
(34,101,l),
(9,77,l),
(35,50,l),
(0,50,l),
(0,34,l),
(73,34,l),
(67,32,o),
(61,25,o),
(61,17,cs),
(61,8,o),
(69,0,o),
(79,0,cs)
);
}
);
width = 293;
},
{
layerId = "054B8FAF-C17B-419D-B2A9-68F3C3D62E10";
shapes = (
{
closed = 1;
nodes = (
(-46,3,o),
(-39,7,o),
(-33,11,cs),
(-21,20,o),
(-10,33,o),
(0,49,c),
(10,33,o),
(22,20,o),
(33,11,cs),
(39,7,o),
(46,3,o),
(52,1,cs),
(59,-1,o),
(66,-1,o),
(73,2,c),
(79,6,o),
(83,13,o),
(84,19,cs),
(86,26,o),
(86,33,o),
(85,41,cs),
(82,57,o),
(76,76,o),
(65,94,cs),
(54,113,o),
(41,128,o),
(29,138,cs),
(23,143,o),
(16,146,o),
(9,148,cs),
(6,149,o),
(3,150,o),
(0,150,cs),
(-3,150,o),
(-6,149,o),
(-9,148,cs),
(-16,146,o),
(-22,143,o),
(-29,138,cs),
(-41,128,o),
(-54,113,o),
(-65,94,cs),
(-75,76,o),
(-82,57,o),
(-85,41,cs),
(-86,33,o),
(-86,26,o),
(-84,19,cs),
(-82,13,o),
(-79,6,o),
(-72,2,cs),
(-66,-1,o),
(-59,-1,o),
(-52,1,cs)
);
},
{
closed = 1;
nodes = (
(-63,19,o),
(-65,20,o),
(-66,24,cs),
(-66,27,o),
(-67,32,o),
(-66,39,cs),
(-64,51,o),
(-58,68,o),
(-48,85,cs),
(-41,98,o),
(-32,109,o),
(-24,117,c),
(-24,114,o),
(-23,111,o),
(-23,108,cs),
(-21,96,o),
(-17,83,o),
(-11,69,c),
(-11,67,o),
(-12,66,o),
(-13,64,cs),
(-23,48,o),
(-34,34,o),
(-44,26,cs),
(-50,22,o),
(-54,20,o),
(-57,19,cs),
(-61,18,o),
(-62,19,o),
(-63,19,c)
);
},
{
closed = 1;
nodes = (
(54,20,o),
(50,22,o),
(45,26,cs),
(34,34,o),
(23,48,o),
(13,64,c),
(11,69,l),
(17,83,o),
(22,96,o),
(23,108,c),
(24,111,o),
(24,114,o),
(24,117,c),
(32,109,o),
(41,98,o),
(48,85,cs),
(58,68,o),
(64,51,o),
(66,39,cs),
(67,32,o),
(67,27,o),
(66,24,cs),
(65,20,o),
(64,19,o),
(63,19,cs),
(62,19,o),
(61,18,o),
(58,19,cs)
);
},
{
closed = 1;
nodes = (
(-2,99,o),
(-3,105,o),
(-4,110,cs),
(-5,117,o),
(-5,122,o),
(-4,125,cs),
(-3,129,o),
(-2,130,o),
(-1,130,c),
(0,131,l),
(1,130,o),
(1,130,o),
(2,130,c),
(2,130,o),
(3,129,o),
(4,125,cs),
(5,122,o),
(5,117,o),
(4,110,cs),
(4,105,o),
(2,99,o),
(0,93,c)
);
}
);
width = 0;
}
);
unicode = 106;
},
{
glyphname = k;
lastChange = "2024-02-06 15:28:32 +0000";
layers = (
{
layerId = m01;
shapes = (
{
closed = 1;
nodes = (
(167,399,l),
(167,439,l),
(183,443,o),
(195,458,o),
(195,475,cs),
(195,484,o),
(192,491,o),
(187,498,c),
(189,497,o),
(191,497,o),
(193,498,cs),
(198,500,o),
(200,506,o),
(199,510,cs),
(197,515,o),
(191,518,o),
(187,516,cs),
(182,514,o),
(179,509,o),
(181,504,c),
(174,509,o),
(167,512,o),
(158,512,cs),
(140,512,o),
(125,500,o),
(122,485,c),
(101,485,l),
(101,466,l),
(121,466,l),
(125,452,o),
(135,442,o),
(149,439,c),
(149,399,l)
);
},
{
closed = 1;
nodes = (
(47,399,l),
(47,439,l),
(60,442,o),
(71,452,o),
(74,466,c),
(94,466,l),
(94,485,l),
(74,485,l),
(70,500,o),
(55,512,o),
(38,512,cs),
(17,512,o),
(0,496,o),
(0,475,cs),
(0,458,o),
(12,443,o),
(29,439,c),
(29,399,l)
);
},
{
closed = 1;
nodes = (
(46,475,o),
(41,479,o),
(41,485,cs),
(41,489,o),
(46,494,o),
(51,494,cs),
(56,494,o),
(60,489,o),
(60,485,cs),
(60,479,o),
(56,475,o),
(51,475,cs)
);
},
{
closed = 1;
nodes = (
(167,475,o),
(162,479,o),
(162,485,cs),
(162,489,o),
(167,494,o),
(172,494,cs),
(176,494,o),
(181,489,o),
(181,485,cs),
(181,479,o),
(176,475,o),
(172,475,cs)
);
}
);
width = 199;
},
{
layerId = "054B8FAF-C17B-419D-B2A9-68F3C3D62E10";
shapes = (
{
closed = 1;
nodes = (
(14,300,o),
(27,305,o),
(34,315,c),
(33,315,ls),
(25,315,o),
(18,321,o),
(18,330,cs),
(18,338,o),
(25,345,o),
(33,345,cs),
(36,345,o),
(39,344,o),
(42,342,c),
(41,346,o),
(39,351,o),
(37,354,c),
(63,354,l),
(52,381,o),
(28,400,o),
(0,400,cs),
(-28,400,o),
(-52,381,o),
(-63,354,c),
(-37,354,l),
(-39,351,o),
(-41,346,o),
(-42,342,c),
(-39,344,o),
(-36,345,o),
(-33,345,cs),
(-24,345,o),
(-18,338,o),
(-18,330,cs),
(-18,321,o),
(-24,315,o),
(-33,315,cs),
(-34,315,l),
(-27,305,o),
(-14,300,o),
(0,300,cs)
);
},
{
closed = 1;
nodes = (
(-8,323,l),
(8,323,l),
(8,315,l),
(-8,315,l)
);
},
{
closed = 1;
nodes = (
(-10,327,o),
(-12,329,o),
(-12,331,cs),
(-12,333,o),
(-10,335,o),
(-8,335,cs),
(-6,335,o),
(-4,333,o),
(-4,331,cs),
(-4,329,o),
(-6,327,o),
(-8,327,cs)
);
},
{
closed = 1;
nodes = (
(-45,357,o),
(-50,361,o),
(-50,367,cs),
(-50,373,o),
(-45,378,o),
(-40,378,cs),
(-34,378,o),
(-29,373,o),
(-29,367,cs),
(-29,361,o),
(-34,357,o),
(-40,357,cs)
);
},
{
closed = 1;
nodes = (
(6,327,o),
(4,329,o),
(4,331,cs),
(4,333,o),
(6,335,o),
(8,335,cs),
(10,335,o),
(12,333,o),
(12,331,cs),
(12,329,o),
(10,327,o),
(8,327,cs)
);
},
{
closed = 1;
nodes = (
(-19,358,o),
(-22,361,o),
(-22,364,cs),
(-22,368,o),
(-19,370,o),
(-16,370,cs),
(-13,370,o),
(-10,368,o),
(-10,364,cs),
(-10,361,o),
(-13,358,o),
(-16,358,cs)
);
},
{
closed = 1;
nodes = (
(-28,378,o),
(-31,380,o),
(-31,384,cs),
(-31,387,o),
(-28,390,o),
(-25,390,cs),
(-22,390,o),
(-19,387,o),
(-19,384,cs),
(-19,380,o),
(-22,378,o),
(-25,378,cs)
);
},
{
closed = 1;
nodes = (
(2,358,o),
(-1,361,o),
(-1,364,cs),
(-1,368,o),
(2,370,o),
(5,370,cs),
(8,370,o),
(11,368,o),
(11,364,cs),
(11,361,o),
(8,358,o),
(5,358,cs)
);
},
{
closed = 1;
nodes = (
(-9,374,o),
(-13,379,o),
(-13,384,cs),
(-13,390,o),
(-9,395,o),
(-3,395,cs),
(3,395,o),
(8,390,o),
(8,384,cs),
(8,379,o),
(3,374,o),
(-3,374,cs)
);
},
{
closed = 1;
nodes = (
(22,357,o),
(18,362,o),
(18,368,cs),
(18,374,o),
(22,378,o),
(28,378,cs),
(34,378,o),
(39,374,o),
(39,368,cs),
(39,362,o),
(34,357,o),
(28,357,cs)
);
},
{
closed = 1;
nodes = (
(14,380,o),
(12,383,o),
(12,386,cs),
(12,389,o),
(14,392,o),
(18,392,cs),
(21,392,o),
(24,389,o),
(24,386,cs),
(24,383,o),
(21,380,o),
(18,380,cs)
);
},
{
closed = 1;
nodes = (
(44,357,o),
(42,360,o),
(42,363,cs),
(42,367,o),
(44,369,o),
(48,369,cs),
(51,369,o),
(54,367,o),
(54,363,cs),
(54,360,o),
(51,357,o),
(48,357,cs)
);
}
);
width = 0;
}
);
unicode = 107;
},
{
glyphname = l;
lastChange = "2024-02-06 15:28:32 +0000";
layers = (
{
layerId = m01;
shapes = (
{
closed = 1;
nodes = (
(195,200,l),
(195,350,l),
(0,350,l),
(0,200,l)
);
},
{
closed = 1;
nodes = (
(78,241,o),
(63,256,o),
(63,275,cs),
(63,294,o),
(78,309,o),
(97,309,cs),
(116,309,o),
(131,294,o),
(131,275,cs),
(131,256,o),
(116,241,o),
(97,241,cs)
);
}
);
width = 195;
},
{
layerId = "054B8FAF-C17B-419D-B2A9-68F3C3D62E10";
shapes = (
{
closed = 1;
nodes = (
(98,150,l),
(98,195,l),
(49,195,l),
(98,243,l),
(66,275,l),
(23,232,l),
(23,300,l),
(-22,300,l),
(-22,232,l),
(-66,275,l),
(-97,243,l),
(-49,195,l),
(-97,195,l),
(-97,150,l)
);
},
{
closed = 1;
nodes = (
(-16,161,o),
(-28,174,o),
(-28,190,cs),
(-28,205,o),
(-16,218,o),
(0,218,cs),
(16,218,o),
(28,205,o),
(28,190,cs),
(28,174,o),
(16,161,o),
(0,161,cs)
);
}
);
width = 1;
}
);
unicode = 108;
},
{
glyphname = m;
lastChange = "2024-02-06 15:28:32 +0000";
layers = (
{
layerId = m01;
shapes = (
{
closed = 1;
nodes = (
(158,34,l),
(158,150,l),
(104,150,l),
(119,34,l)
);
},
{
closed = 1;
nodes = (
(119,0,l),
(194,0,l),
(194,20,l),
(119,34,l)
);
},
{
closed = 1;
nodes = (
(75,0,l),
(75,34,l),
(0,20,l),
(0,0,l)
);
},
{
closed = 1;
nodes = (
(75,34,l),
(90,150,l),
(36,150,l),
(36,34,l)
);
}
);
width = 194;
},
{
layerId = "054B8FAF-C17B-419D-B2A9-68F3C3D62E10";
shapes = (
{
closed = 1;
nodes = (
(55,0,l),
(55,10,l),
(55,15,o),
(50,19,o),
(45,19,c),
(26,19,l),
(26,28,l),
(66,28,l),
(32,150,l),
(13,150,l),
(13,0,l)
);
},
{
closed = 1;
nodes = (
(-34,7,l),
(-26,7,l),
(-26,0,l),
(-34,0,l)
);
},
{
closed = 1;
nodes = (
(26,7,l),
(35,7,l),
(35,0,l),
(26,0,l)
);
},
{
closed = 1;
nodes = (
(-13,0,l),
(-13,150,l),
(-32,150,l),
(-65,28,l),
(-26,28,l),
(-26,19,l),
(-45,19,l),
(-50,19,o),
(-54,15,o),
(-54,10,c),
(-54,0,l)
);
}
);
width = 1;
}
);
unicode = 109;
},
{
glyphname = n;
lastChange = "2024-02-06 15:28:32 +0000";
layers = (
{
layerId = m01;
shapes = (
{
closed = 1;
nodes = (
(71,415,o),
(87,432,o),
(87,453,cs),
(87,474,o),
(71,490,o),
(50,490,cs),
(36,490,o),
(24,483,o),
(17,471,c),
(15,474,o),
(12,477,o),
(9,477,cs),
(3,477,o),
(0,472,o),
(0,467,cs),
(0,462,o),
(3,458,o),
(9,458,cs),
(10,458,o),
(12,458,o),
(13,459,c),
(12,456,o),
(12,455,o),
(12,453,cs),
(12,432,o),
(29,415,o),
(50,415,cs)
);
},
{
closed = 1;
nodes = (
(30,451,o),
(27,455,o),
(27,460,cs),
(27,465,o),
(30,470,o),
(36,470,cs),
(41,470,o),
(45,465,o),
(45,460,cs),
(45,455,o),
(41,451,o),
(36,451,cs)
);
}
);
width = 87;
},
{
layerId = "054B8FAF-C17B-419D-B2A9-68F3C3D62E10";
shapes = (
{
closed = 1;
nodes = (
(-4,300,l),
(-4,317,l),
(4,317,l),
(4,300,l),
(21,300,ls),
(32,300,o),
(40,309,o),
(40,319,cs),
(40,338,l),
(63,338,l),
(63,363,l),
(33,357,l),
(14,400,l),
(-25,356,l),
(-64,363,l),
(-64,338,l),
(-41,338,l),
(-41,319,ls),
(-41,309,o),
(-32,300,o),
(-22,300,cs)
);
},
{
closed = 1;
nodes = (
(-25,311,o),
(-27,312,o),
(-28,314,c),
(-30,316,o),
(-31,318,o),
(-31,320,c),
(-32,322,o),
(-32,324,o),
(-31,326,cs),
(-30,328,o),
(-28,330,o),
(-27,331,cs),
(-25,333,o),
(-22,333,o),
(-20,333,c),
(-20,322,l),
(-9,322,l),
(-9,320,o),
(-10,318,o),
(-11,316,cs),
(-12,314,o),
(-14,312,o),
(-16,312,c),
(-18,311,o),
(-20,311,o),
(-22,311,cs)
);
},
{
closed = 1;
nodes = (
(17,311,o),
(15,312,o),
(14,314,c),
(12,316,o),
(11,318,o),
(11,320,c),
(10,322,o),
(10,324,o),
(11,326,cs),
(12,328,o),
(14,330,o),
(15,331,cs),
(17,333,o),
(19,333,o),
(22,333,c),
(22,322,l),
(33,322,l),
(33,320,o),
(32,318,o),
(31,316,cs),
(30,314,o),
(28,312,o),
(26,312,c),
(24,311,o),
(22,311,o),
(19,311,cs)
);
}
);
width = 0;
}
);
unicode = 110;
},
{
glyphname = o;
lastChange = "2024-02-06 15:28:32 +0000";
layers = (
{
layerId = m01;
shapes = (
{
closed = 1;
nodes = (
(173,181,o),
(180,189,o),
(182,198,c),
(214,206,o),
(238,235,o),
(238,270,cs),
(238,276,l),
(243,273,o),
(250,270,o),
(257,270,cs),
(278,270,o),
(295,287,o),
(295,308,cs),
(295,329,o),
(278,345,o),
(257,345,cs),
(240,345,o),
(225,334,o),
(221,318,c),
(207,335,o),
(186,345,o),
(163,345,cs),
(140,345,o),
(119,335,o),
(105,318,c),
(101,334,o),
(86,345,o),
(69,345,cs),
(48,345,o),
(32,329,o),
(32,308,cs),
(32,287,o),
(48,270,o),
(69,270,cs),
(76,270,o),
(83,273,o),
(88,276,c),
(88,270,ls),
(88,235,o),
(112,206,o),
(144,198,c),
(146,189,o),
(153,181,o),
(163,181,cs)
);
},
{
closed = 1;
nodes = (
(29,327,o),
(38,336,o),
(38,346,cs),
(38,356,o),
(29,365,o),
(19,365,cs),
(8,365,o),
(0,356,o),
(0,346,cs),
(0,336,o),
(8,327,o),
(19,327,cs)
);
},
{
closed = 1;
nodes = (
(37,369,o),
(46,378,o),
(46,388,cs),
(46,399,o),
(37,407,o),
(27,407,cs),
(17,407,o),
(8,399,o),
(8,388,cs),
(8,378,o),
(17,369,o),
(27,369,cs)
);
},
{
closed = 1;
nodes = (
(286,187,o),
(295,195,o),
(295,206,cs),
(295,216,o),
(286,225,o),
(276,225,cs),
(266,225,o),
(257,216,o),
(257,206,cs),
(257,195,o),
(266,187,o),
(276,187,cs)
);
},
{
closed = 1;
nodes = (
(286,231,o),
(295,239,o),
(295,249,cs),
(295,260,o),
(286,268,o),
(276,268,cs),
(266,268,o),
(257,260,o),
(257,249,cs),
(257,239,o),
(266,231,o),
(276,231,cs)
);
}
);
width = 295;
},
{
layerId = "054B8FAF-C17B-419D-B2A9-68F3C3D62E10";
shapes = (
{
closed = 1;
nodes = (
(0,231,l),
(85,163,l),
(85,205,ls),
(85,231,o),
(72,256,o),
(49,269,cs),
(0,300,l),
(-50,269,ls),
(-72,256,o),
(-85,231,o),
(-85,205,cs),
(-85,163,l)
);
},
{
closed = 1;
nodes = (
(41,150,l),
(41,186,l),
(0,218,l),
(-41,186,l),
(-41,150,l)
);
},
{
closed = 1;
nodes = (
(7,257,o),
(3,261,o),
(3,267,cs),
(3,272,o),
(7,277,o),
(13,277,cs),
(18,277,o),
(23,272,o),
(23,267,cs),
(23,261,o),
(18,257,o),
(13,257,cs)
);
}
);
width = 0;
}
);
unicode = 111;
},
{
glyphname = p;
lastChange = "2024-02-06 15:28:32 +0000";
layers = (
{
layerId = m01;
shapes = (
{
closed = 1;
nodes = (
(109,110,o),
(117,118,o),
(117,128,cs),
(117,139,o),
(109,147,o),
(98,147,cs),
(88,147,o),
(79,139,o),
(79,128,cs),
(79,118,o),
(88,110,o),
(98,110,cs)
);
},
{
closed = 1;
nodes = (
(48,0,l),
(48,11,o),
(40,19,o),
(29,19,cs),
(19,19,o),
(10,11,o),
(10,0,c)
);
},
{
closed = 1;
nodes = (
(37,26,o),
(45,34,o),
(45,44,cs),
(45,55,o),
(37,63,o),
(26,63,cs),
(16,63,o),
(7,55,o),
(7,44,cs),
(7,34,o),
(16,26,o),
(26,26,cs)
);
},
{
closed = 1;
nodes = (
(114,0,l),
(114,11,o),
(106,19,o),
(95,19,cs),
(85,19,o),
(76,11,o),
(76,0,c)
);
},
{
closed = 1;
nodes = (
(29,68,o),
(37,76,o),
(37,86,cs),
(37,97,o),
(29,105,o),
(19,105,cs),
(8,105,o),
(0,97,o),
(0,86,cs),
(0,76,o),
(8,68,o),
(19,68,cs)
);
},
{
closed = 1;
nodes = (
(109,26,o),
(117,34,o),
(117,44,cs),
(117,55,o),
(109,63,o),
(98,63,cs),
(88,63,o),
(79,55,o),
(79,44,cs),
(79,34,o),
(88,26,o),
(98,26,cs)
);
},
{
closed = 1;
nodes = (
(37,110,o),
(45,118,o),
(45,128,cs),
(45,139,o),
(37,147,o),
(26,147,cs),
(16,147,o),
(7,139,o),
(7,128,cs),
(7,118,o),
(16,110,o),
(26,110,cs)
);
},
{
closed = 1;
nodes = (
(116,68,o),
(124,76,o),
(124,86,cs),
(124,97,o),
(116,105,o),
(106,105,cs),
(95,105,o),
(87,97,o),
(87,86,cs),
(87,76,o),
(95,68,o),
(106,68,cs)
);
}
);
width = 124;
},
{
layerId = "054B8FAF-C17B-419D-B2A9-68F3C3D62E10";
shapes = (
{
closed = 1;
nodes = (
(43,19,l),
(41,21,l),
(20,57,l),
(28,80,l),
(44,74,l),
(71,18,l),
(84,25,l),
(73,48,l),
(95,29,l),
(105,40,l),
(81,61,l),
(111,51,l),
(116,65,l),
(88,75,l),
(117,76,l),
(117,91,l),
(87,89,l),
(111,101,l),
(104,114,l),
(50,88,l),
(41,91,l),
(41,120,l),
(41,150,l),
(-41,150,l),
(-54,124,l),
(-112,145,l),
(-117,130,l),
(-60,111,l),
(-71,90,l),
(-46,56,l),
(-55,51,o),
(-58,40,o),
(-53,31,c),
(-14,50,l),
(-44,90,l),
(-38,103,l),
(4,88,l),
(-7,57,l),
(11,26,l),
(2,20,o),
(-1,9,o),
(4,0,c)
);
}
);
width = 0;
}
);
unicode = 112;
},
{
glyphname = q;
lastChange = "2024-02-06 15:28:32 +0000";
layers = (
{
layerId = m01;
shapes = (
{
closed = 1;
nodes = (
(50,400,l),
(56,428,l),
(72,429,o),
(86,441,o),
(90,456,c),
(114,456,l),
(114,475,l),
(90,475,l),
(86,491,o),
(71,503,o),
(53,503,cs),
(36,503,o),
(21,490,o),
(17,474,c),
(0,420,l),
(35,420,l),
(32,400,l)
);
},
{
closed = 1;
nodes = (
(65,465,o),
(61,469,o),
(61,474,cs),
(61,480,o),
(65,484,o),
(71,484,cs),
(76,484,o),
(80,480,o),
(80,474,cs),
(80,469,o),
(76,465,o),
(71,465,cs)
);
}
);
width = 114;
},
{
layerId = "054B8FAF-C17B-419D-B2A9-68F3C3D62E10";
shapes = (
{
closed = 1;
nodes = (
(12,300,o),
(23,304,o),
(33,311,cs),
(42,318,o),
(49,328,o),
(52,340,cs),
(55,351,o),
(54,363,o),
(49,374,cs),
(45,385,o),
(37,394,o),
(27,400,c),
(0,345,l),
(-27,400,l),
(-37,394,o),
(-45,385,o),
(-49,374,cs),
(-54,363,o),
(-55,351,o),
(-52,340,cs),
(-49,328,o),
(-42,318,o),
(-33,311,cs),
(-23,304,o),
(-12,300,o),
(0,300,cs)
);
},
{
closed = 1;
nodes = (
(-39,325,o),
(-47,334,o),
(-47,344,cs),
(-47,354,o),
(-39,362,o),
(-29,364,c),
(-33,358,o),
(-36,351,o),
(-36,344,cs),
(-36,337,o),
(-33,330,o),
(-29,324,c)
);
},
{
closed = 1;
nodes = (
(0,333,l),
(11,314,l),
(-11,314,l)
);
},
{
closed = 1;
nodes = (
(-20,330,o),
(-18,337,o),
(-18,344,cs),
(-18,351,o),
(-20,358,o),
(-24,364,c),
(-15,362,o),
(-7,354,o),
(-7,344,cs),
(-7,334,o),
(-15,325,o),
(-24,324,c)
);
},
{
closed = 1;
nodes = (
(15,325,o),
(7,334,o),
(7,344,cs),
(7,354,o),
(15,362,o),
(24,364,c),
(20,358,o),
(18,351,o),
(18,344,cs),
(18,337,o),
(20,330,o),
(24,324,c)
);
},
{
closed = 1;
nodes = (
(33,330,o),
(36,337,o),
(36,344,cs),
(36,351,o),
(33,358,o),
(29,364,c),
(39,362,o),
(46,354,o),
(46,344,cs),
(46,334,o),
(39,325,o),
(29,324,c)
);
}
);
width = 0;
}
);
unicode = 113;
},
{
glyphname = r;
lastChange = "2024-02-06 15:28:32 +0000";
layers = (
{
layerId = m01;
shapes = (
{
closed = 1;
nodes = (
(103,200,l),
(115,289,l),
(124,256,l),
(124,256,l),
(151,244,l),
(150,242,o),
(150,241,o),
(150,239,cs),
(150,232,o),
(156,226,o),
(163,226,cs),
(171,226,o),
(177,232,o),
(177,239,cs),
(177,245,o),
(172,250,o),
(167,251,c),
(171,261,l),
(144,273,l),
(124,350,l),
(24,350,ls),
(12,350,o),
(3,341,o),
(3,330,cs),
(3,322,o),
(8,316,o),
(14,312,c),
(0,272,l),
(33,272,l),
(10,200,l)
);
}
);
width = 177;
},
{
layerId = "054B8FAF-C17B-419D-B2A9-68F3C3D62E10";
shapes = (
{
closed = 1;
nodes = (
(92,150,l),
(43,273,l),
(49,300,l),
(16,300,l),
(0,273,l),
(-15,300,l),
(-48,300,l),
(-42,273,l),
(-91,150,l)
);
},
{
closed = 1;
nodes = (
(-38,251,l),
(-19,162,l),
(-73,162,l)
);
},
{
closed = 1;
nodes = (
(-6,162,o),
(-12,168,o),
(-12,175,cs),
(-12,182,o),
(-6,188,o),
(0,188,cs),
(7,188,o),
(13,182,o),
(13,175,cs),
(13,168,o),
(7,162,o),
(0,162,cs)
);
},
{
closed = 1;
nodes = (
(-6,199,o),
(-12,205,o),
(-12,212,cs),
(-12,219,o),
(-6,225,o),
(0,225,cs),
(7,225,o),
(13,219,o),
(13,212,cs),
(13,205,o),
(7,199,o),
(0,199,cs)
);
},
{
closed = 1;
nodes = (
(-6,236,o),
(-12,242,o),
(-12,249,cs),
(-12,256,o),
(-6,261,o),
(0,261,cs),
(7,261,o),
(13,256,o),
(13,249,cs),
(13,242,o),
(7,236,o),
(0,236,cs)
);
},
{
closed = 1;
nodes = (
(39,251,l),
(74,162,l),
(20,162,l)
);
}
);
width = 1;
}
);
unicode = 114;
},
{
glyphname = s;
lastChange = "2024-02-06 15:28:32 +0000";
layers = (
{
layerId = m01;
shapes = (
{
closed = 1;
nodes = (
(114,0,o),
(147,32,o),
(149,71,c),
(183,71,l),
(184,67,o),
(187,63,o),
(191,62,c),
(191,53,l),
(184,45,l),
(187,43,l),
(187,24,l),
(182,24,l),
(182,14,l),
(211,14,l),
(211,23,l),
(233,23,l),
(233,45,l),
(216,45,l),
(243,74,l),
(243,33,o),
(276,0,o),
(318,0,cs),
(359,0,o),
(393,34,o),
(393,75,cs),
(393,116,o),
(359,150,o),
(318,150,cs),
(300,150,o),
(284,144,o),
(271,134,c),
(264,142,l),
(297,179,l),
(304,179,l),
(304,190,l),
(270,190,l),
(270,179,l),
(285,179,l),
(262,154,l),
(216,154,l),
(194,179,l),
(168,156,l),
(170,154,l),
(146,154,l),
(146,144,l),
(129,126,l),
(116,140,o),
(96,150,o),
(75,150,cs),
(33,150,o),
(0,116,o),
(0,75,cs),
(0,34,o),
(33,0,o),
(75,0,cs)
);
},
{
closed = 1;
nodes = (
(63,56,o),
(55,65,o),
(55,75,cs),
(55,86,o),
(63,95,o),
(75,95,cs),
(82,95,o),
(89,90,o),
(92,83,c),
(89,80,l),
(75,80,l),
(75,71,l),
(93,71,l),
(91,62,o),
(84,56,o),
(75,56,cs)
);
},
{
closed = 1;
nodes = (
(143,106,o),
(140,113,o),
(135,119,c),
(146,130,l),
(146,98,l)
);
},
{
closed = 1;
nodes = (
(155,141,l),
(182,141,l),
(216,102,l),
(203,87,l),
(201,89,o),
(198,89,o),
(196,89,cs),
(190,89,o),
(184,86,o),
(183,80,c),
(155,80,l)
);
},
{
closed = 1;
nodes = (
(210,75,ls),
(210,77,o),
(210,79,o),
(209,80,c),
(222,95,l),
(225,92,l),
(210,74,l)
);
},
{
closed = 1;
nodes = (
(228,141,l),
(251,141,l),
(240,128,l)
);
},
{
closed = 1;
nodes = (
(246,122,l),
(258,135,l),
(264,128,l),
(260,123,o),
(256,119,o),
(253,113,c)
);
},
{
closed = 1;
nodes = (
(307,56,o),
(298,65,o),
(298,75,cs),
(298,79,o),
(300,83,o),
(302,86,c),
(316,70,l),
(323,76,l),
(308,92,l),
(311,94,o),
(314,95,o),
(318,95,cs),
(328,95,o),
(337,86,o),
(337,75,cs),
(337,65,o),
(328,56,o),
(318,56,cs)
);
}
);
width = 393;
},
{
layerId = "054B8FAF-C17B-419D-B2A9-68F3C3D62E10";
shapes = (
{
closed = 1;
nodes = (
(-36,39,o),
(-29,42,o),
(-22,42,c),
(-16,42,o),
(-11,40,o),
(-7,37,c),
(-1,82,l),
(6,36,l),
(10,40,o),
(16,42,o),
(21,42,c),
(29,42,o),
(35,39,o),
(39,34,c),
(49,52,l),
(58,67,o),
(57,87,o),
(46,100,c),
(16,137,l),
(12,141,o),
(14,147,o),
(19,150,c),
(-20,150,l),
(-15,147,o),
(-14,141,o),
(-17,137,c),
(-47,100,l),
(-58,87,o),
(-60,67,o),
(-50,52,c),
(-40,33,l)
);
},
{
closed = 1;
nodes = (
(-25,0,l),
(-15,18,l),
(-15,0,l),
(-7,0,l),
(-7,20,l),
(-33,20,l),
(-33,13,o),
(-41,8,o),
(-49,7,c),
(-85,5,l),
(-85,0,l)
);
},
{
closed = 1;
nodes = (
(15,0,l),
(15,18,l),
(24,0,l),
(85,0,l),
(85,5,l),
(48,7,l),
(41,8,o),
(32,13,o),
(32,20,c),
(7,20,l),
(7,0,l)
);
}
);
width = 0;
}
);
unicode = 115;
},
{
glyphname = t;
lastChange = "2024-02-06 15:28:32 +0000";
layers = (
{
layerId = m01;
shapes = (
{
closed = 1;
nodes = (
(96,400,l),
(96,439,l),
(109,442,o),
(120,453,o),
(123,466,c),
(142,466,l),
(142,485,l),
(123,485,l),
(121,492,l),
(124,492,l),
(119,511,ls),
(113,531,o),
(93,543,o),
(73,537,cs),
(53,531,o),
(41,510,o),
(47,491,c),
(0,477,l),
(5,459,l),
(49,472,l),
(51,456,o),
(62,443,o),
(77,439,c),
(77,400,l)
);
},
{
closed = 1;
nodes = (
(69,466,o),
(64,471,o),
(64,476,c),
(82,481,l),
(82,480,o),
(83,477,o),
(83,476,cs),
(83,471,o),
(79,466,o),
(74,466,cs)
);
}
);
width = 142;
},
{
layerId = "054B8FAF-C17B-419D-B2A9-68F3C3D62E10";
shapes = (
{
closed = 1;
nodes = (
(51,300,l),
(51,349,ls),
(51,366,o),
(43,380,o),
(30,389,c),
(30,390,o),
(29,390,o),
(28,391,cs),
(20,396,o),
(11,400,o),
(0,400,cs),
(-10,400,o),
(-20,396,o),
(-28,391,cs),
(-34,387,o),
(-39,382,o),
(-43,375,cs),
(-48,368,o),
(-50,359,o),
(-50,349,cs),
(-50,300,l)
);
},
{
closed = 1;
nodes = (
(-32,336,o),
(-38,342,o),
(-38,350,cs),
(-38,357,o),
(-32,363,o),
(-25,363,cs),
(-17,363,o),
(-11,357,o),
(-11,350,cs),
(-11,342,o),
(-17,336,o),
(-25,336,cs)
);
},
{
closed = 1;
nodes = (
(-21,344,o),
(-18,346,o),
(-18,350,cs),
(-18,353,o),
(-21,355,o),
(-24,355,cs),
(-27,355,o),
(-29,353,o),
(-29,350,cs),
(-29,346,o),
(-27,344,o),
(-24,344,cs)
);
},
{
closed = 1;
nodes = (
(5,319,o),
(9,323,o),
(9,328,cs),
(9,333,o),
(5,337,o),
(0,337,cs),
(-5,337,o),
(-9,333,o),
(-9,328,cs),
(-9,323,o),
(-5,319,o),
(0,319,cs)
);
},
{
closed = 1;
nodes = (
(-40,363,o),
(-38,366,o),
(-36,370,c),
(-30,367,l),
(-34,366,o),
(-38,363,o),
(-41,359,c)
);
},
{
closed = 1;
nodes = (
(-20,308,o),
(-36,321,o),
(-41,340,c),
(-38,336,o),
(-34,333,o),
(-29,331,c),
(-29,329,ls),
(-29,325,o),
(-26,322,o),
(-23,322,cs),
(-19,322,o),
(-16,325,o),
(-16,329,cs),
(-16,330,o),
(-17,331,o),
(-17,332,c),
(-11,335,o),
(-6,342,o),
(-6,350,cs),
(-6,353,o),
(-3,356,o),
(0,356,cs),
(3,356,o),
(6,353,o),
(6,350,cs),
(6,342,o),
(11,335,o),
(18,332,c),
(17,331,o),
(17,330,o),
(17,329,cs),
(17,325,o),
(20,322,o),
(23,322,cs),
(27,322,o),
(30,325,o),
(30,329,cs),
(30,330,o),
(29,331,o),
(29,331,c),
(34,333,o),
(38,336,o),
(41,340,c),
(36,321,o),
(20,308,o),
(0,308,cs)
);
},
{
closed = 1;
nodes = (
(17,336,o),
(11,342,o),
(11,350,cs),
(11,357,o),
(17,363,o),
(25,363,cs),
(32,363,o),
(38,357,o),
(38,350,cs),
(38,342,o),
(32,336,o),
(25,336,cs)
);
},
{
closed = 1;
nodes = (
(27,344,o),
(30,346,o),
(30,350,cs),
(30,353,o),
(27,355,o),
(24,355,cs),
(21,355,o),
(18,353,o),
(18,350,cs),
(18,346,o),
(21,344,o),
(24,344,cs)
);
},
{
closed = 1;
nodes = (
(-10,362,o),
(-14,366,o),
(-19,367,c),
(-8,370,o),
(0,379,o),
(0,391,cs),
(0,380,o),
(8,370,o),
(19,367,c),
(14,366,o),
(10,362,o),
(8,357,c),
(6,360,o),
(3,361,o),
(0,361,cs),
(-3,361,o),
(-6,360,o),
(-8,357,c)
);
},
{
closed = 1;
nodes = (
(38,363,o),
(35,366,o),
(30,367,c),
(37,370,l),
(38,366,o),
(40,363,o),
(41,359,c)
);
}
);
width = 1;
}
);
unicode = 116;
},
{
glyphname = u;
lastChange = "2024-02-06 15:28:32 +0000";
layers = (
{
layerId = m01;
shapes = (
{
closed = 1;
nodes = (
(107,82,l),
(107,143,l),
(271,143,l),
(271,82,l),
(378,82,l),
(378,204,l),
(332,204,l),
(335,206,o),
(335,209,o),
(335,213,cs),
(335,216,o),
(334,220,o),
(331,222,c),
(338,221,l),
(358,285,l),
(266,321,l),
(212,321,l),
(212,344,l),
(166,344,l),
(166,321,l),
(113,321,l),
(20,285,l),
(41,221,l),
(47,222,l),
(44,220,o),
(42,216,o),
(42,213,cs),
(42,209,o),
(44,206,o),
(46,204,c),
(0,204,l),
(0,82,l)
);
},
{
closed = 1;
nodes = (
(269,217,l),
(268,254,l),
(110,254,l),
(108,217,l)
);
},
{
closed = 1;
nodes = (
(107,204,l),
(65,204,l),
(67,206,o),
(68,209,o),
(68,213,cs),
(68,219,o),
(64,225,o),
(57,225,c),
(62,228,l),
(50,270,l),
(112,291,l),
(111,285,l),
(267,285,l),
(266,291,l),
(329,270,l),
(315,228,l),
(321,225,l),
(314,225,o),
(309,219,o),
(309,213,cs),
(309,209,o),
(311,206,o),
(313,204,c),
(271,204,l),
(271,186,l),
(107,186,l)
);
}
);
width = 378;
},
{
layerId = "054B8FAF-C17B-419D-B2A9-68F3C3D62E10";
shapes = (
{
closed = 1;
nodes = (
(92,150,l),
(77,299,l),
(77,300,l),
(-76,300,l),
(-76,299,l),
(-91,150,l)
);
},
{
closed = 1;
nodes = (
(-60,287,l),
(-46,287,l),
(-46,150,l)
);
},
{
closed = 1;
nodes = (
(46,287,l),
(60,287,l),
(46,150,l)
);
},
{
closed = 1;
nodes = (
(-11,279,o),
(-20,288,o),
(-20,300,c),
(21,300,l),
(21,288,o),
(11,279,o),
(0,279,c)
);
}
);
width = 1;
}
);
unicode = 117;
},
{
glyphname = v;
lastChange = "2024-02-06 15:28:32 +0000";
layers = (
{
layerId = m01;
shapes = (
{
closed = 1;
nodes = (
(99,0,l),
(102,62,l),
(104,62,l),
(107,0,l),
(206,0,l),
(206,19,l),
(181,19,l),
(181,150,l),
(25,150,l),
(25,19,l),
(0,19,l),
(0,0,l)
);
}
);
width = 206;
},
{
layerId = "054B8FAF-C17B-419D-B2A9-68F3C3D62E10";
shapes = (
{
closed = 1;
nodes = (
(-36,0,l),
(-36,4,o),
(-38,8,o),
(-41,12,c),
(-39,11,o),
(-37,11,o),
(-34,11,cs),
(-31,11,o),
(-29,11,o),
(-26,12,c),
(-26,0,l),
(-15,0,l),
(-15,30,l),
(-9,30,l),
(-9,81,l),
(9,81,l),
(9,30,l),
(15,30,l),
(15,0,l),
(26,0,l),
(26,12,l),
(28,11,o),
(31,11,o),
(34,11,cs),
(36,11,o),
(38,11,o),
(40,12,c),
(37,8,o),
(36,4,o),
(36,0,c),
(74,0,l),
(74,10,o),
(65,19,o),
(55,19,cs),
(52,19,o),
(50,18,o),
(48,17,c),
(51,21,o),
(53,25,o),
(53,30,c),
(59,30,l),
(89,90,l),
(59,150,l),
(-59,150,l),
(-89,90,l),
(-59,30,l),
(-53,30,l),
(-53,25,o),
(-52,21,o),
(-49,17,c),
(-51,18,o),
(-53,19,o),
(-55,19,cs),
(-66,19,o),
(-74,10,o),
(-74,0,c)
);
}
);
width = 0;
}
);
unicode = 118;
},
{
glyphname = w;
lastChange = "2024-02-06 15:28:32 +0000";
layers = (
{
layerId = m01;
shapes = (
{
closed = 1;
nodes = (
(114,400,l),
(114,440,l),
(128,444,o),
(138,454,o),
(141,468,c),
(158,468,l),
(158,483,l),
(142,483,l),
(142,486,o),
(141,489,o),
(139,493,c),
(215,478,l),
(218,490,l),
(152,503,l),
(158,531,l),
(74,548,l),
(68,520,l),
(3,533,l),
(0,521,l),
(81,504,l),
(75,500,o),
(71,493,o),
(69,486,c),
(52,432,l),
(96,432,l),
(96,400,l)
);
},
{
closed = 1;
nodes = (
(90,477,o),
(86,481,o),
(86,486,cs),
(86,492,o),
(90,496,o),
(95,496,cs),
(100,496,o),
(105,492,o),
(105,486,cs),
(105,481,o),
(100,477,o),
(95,477,cs)
);
}
);
width = 218;
},
{
layerId = "054B8FAF-C17B-419D-B2A9-68F3C3D62E10";
shapes = (
{
closed = 1;
nodes = (
(-3,307,o),
(3,307,o),
(7,303,cs),
(13,298,o),
(23,301,o),
(24,309,cs),
(25,315,o),
(29,318,o),
(34,318,cs),
(43,318,o),
(48,327,o),
(43,334,c),
(41,339,o),
(42,345,o),
(46,348,cs),
(52,353,o),
(50,364,o),
(43,366,cs),
(38,368,o),
(35,373,o),
(36,378,cs),
(37,387,o),
(30,393,o),
(22,390,cs),
(17,388,o),
(12,390,o),
(9,395,cs),
(5,402,o),
(-5,402,o),
(-9,395,cs),
(-12,390,o),
(-17,388,o),
(-22,390,cs),
(-30,393,o),
(-38,387,o),
(-36,378,cs),
(-35,373,o),
(-38,368,o),
(-43,366,cs),
(-51,364,o),
(-52,353,o),
(-46,348,cs),
(-42,345,o),
(-41,339,o),
(-44,334,cs),
(-48,327,o),
(-43,318,o),
(-35,318,cs),
(-29,318,o),
(-25,315,o),
(-24,309,cs),
(-23,301,o),
(-13,298,o),
(-7,303,cs)
);
},
{
closed = 1;
nodes = (
(-28,329,o),
(-31,333,o),
(-31,337,cs),
(-31,341,o),
(-28,344,o),
(-24,344,cs),
(-20,344,o),
(-16,341,o),
(-16,337,cs),
(-16,333,o),
(-20,329,o),
(-24,329,cs)
);
},
{
closed = 1;
nodes = (
(-7,327,l),
(8,327,l),
(8,319,l),
(-7,319,l)
);
},
{
closed = 1;
nodes = (
(-21,355,o),
(-27,359,o),
(-34,360,c),
(-33,364,o),
(-29,367,o),
(-24,367,cs),
(-18,367,o),
(-13,362,o),
(-13,356,cs),
(-13,353,o),
(-15,350,o),
(-17,348,c)
);
},
{
closed = 1;
nodes = (
(-7,360,l),
(1,360,l),
(1,346,l),
(5,350,l),
(11,345,l),
(0,333,l),
(-7,333,l)
);
},
{
closed = 1;
nodes = (
(19,329,o),
(16,333,o),
(16,337,cs),
(16,341,o),
(19,344,o),
(23,344,cs),
(27,344,o),
(31,341,o),
(31,337,cs),
(31,333,o),
(27,329,o),
(23,329,cs)
);
},
{
closed = 1;
nodes = (
(14,350,o),
(13,353,o),
(13,356,cs),
(13,362,o),
(18,367,o),
(23,367,cs),
(28,367,o),
(32,364,o),
(34,360,c),
(26,359,o),
(20,355,o),
(16,348,c)
);
}
);
width = 0;
}
);
unicode = 119;
},
{
glyphname = x;
lastChange = "2024-02-06 15:28:32 +0000";
layers = (
{
layerId = m01;
shapes = (
{
closed = 1;
nodes = (
(207,90,l),
(183,199,l),
(185,197,o),
(188,196,o),
(192,196,cs),
(198,196,o),
(204,202,o),
(204,209,cs),
(204,216,o),
(198,222,o),
(192,222,cs),
(189,222,o),
(188,222,o),
(186,221,c),
(237,271,l),
(177,324,l),
(66,324,l),
(27,363,l),
(66,403,l),
(54,416,l),
(57,418,o),
(58,422,o),
(58,425,cs),
(58,433,o),
(52,439,o),
(45,439,cs),
(38,439,o),
(32,433,o),
(32,425,cs),
(32,418,o),
(38,413,o),
(45,413,cs),
(47,413,o),
(48,413,o),
(50,413,c),
(14,377,l),
(0,363,l),
(64,301,l),
(64,249,l),
(101,249,l),
(101,227,l),
(64,227,l),
(34,90,l)
);
},
{
closed = 1;
nodes = (
(140,249,l),
(177,249,l),
(177,299,l),
(210,271,l),
(170,231,l),
(174,227,l),
(140,227,l)
);
}
);
width = 237;
},
{
layerId = "054B8FAF-C17B-419D-B2A9-68F3C3D62E10";
shapes = (
{
closed = 1;
nodes = (
(41,150,o),
(75,183,o),
(75,224,cs),
(75,220,l),
(97,220,o),
(115,237,o),
(115,260,cs),
(115,282,o),
(97,300,o),
(75,300,c),
(75,225,ls),
(75,266,o),
(41,300,o),
(0,300,cs),
(-42,300,o),
(-75,266,o),
(-75,225,cs),
(-75,183,o),
(-42,150,o),
(0,150,cs)
);
},
{
closed = 1;
nodes = (
(-15,197,o),
(-27,210,o),
(-27,225,cs),
(-27,239,o),
(-15,252,o),
(0,252,cs),
(14,252,o),
(27,239,o),
(27,225,cs),
(27,210,o),
(14,197,o),
(0,197,cs)
);
},
{
closed = 1;
nodes = (
(-115,237,o),
(-98,220,o),
(-75,220,c),
(-75,300,l),
(-98,300,o),
(-115,282,o),
(-115,260,cs)
);
}
);
width = 0;
}
);
unicode = 120;
},
{
glyphname = y;
lastChange = "2024-02-06 15:28:32 +0000";
layers = (
{
layerId = m01;
shapes = (
{
closed = 1;
nodes = (
(106,0,l),
(106,22,l),
(73,22,l),
(73,150,l),
(34,150,l),
(34,22,l),
(0,22,l),
(0,0,l)
);
}
);
width = 106;
},
{
layerId = "054B8FAF-C17B-419D-B2A9-68F3C3D62E10";
shapes = (
{
closed = 1;
nodes = (
(-56,25,o),
(-53,24,o),
(-51,23,c),
(-89,23,l),
(-89,0,l),
(-23,0,l),
(-23,23,l),
(-42,23,l),
(-36,24,o),
(-30,28,o),
(-27,34,cs),
(-20,45,o),
(-24,59,o),
(-35,66,cs),
(-46,72,o),
(-60,68,o),
(-67,57,cs),
(-73,46,o),
(-69,32,o),
(-58,26,cs)
);
},
{
closed = 1;
nodes = (
(89,0,l),
(89,23,l),
(51,23,l),
(53,24,o),
(56,25,o),
(58,26,cs),
(69,32,o),
(73,46,o),
(66,57,cs),
(60,68,o),
(46,72,o),
(35,66,c),
(46,72,o),
(49,87,o),
(43,98,cs),
(37,109,o),
(23,112,o),
(12,106,cs),
(15,108,o),
(18,111,o),
(20,115,cs),
(26,126,o),
(22,140,o),
(11,146,cs),
(0,153,o),
(-14,149,o),
(-20,138,cs),
(-27,127,o),
(-23,113,o),
(-12,106,cs),
(-5,102,o),
(4,102,o),
(11,106,c),
(4,102,o),
(0,94,o),
(0,86,cs),
(0,82,o),
(1,78,o),
(3,74,cs),
(9,63,o),
(23,59,o),
(34,66,c),
(23,59,o),
(20,45,o),
(26,34,cs),
(29,28,o),
(35,24,o),
(41,23,c),
(23,23,l),
(23,0,l)
);
},
{
closed = 1;
nodes = (
(-50,87,o),
(-46,72,o),
(-35,66,cs),
(-24,59,o),
(-10,63,o),
(-3,74,cs),
(-1,78,o),
(0,82,o),
(0,86,cs),
(0,94,o),
(-5,102,o),
(-12,106,cs),
(-23,113,o),
(-37,109,o),
(-44,98,cs)
);
}
);
width = 0;
}
);
unicode = 121;
},
{
glyphname = z;
lastChange = "2024-02-06 15:28:32 +0000";
layers = (
{
layerId = m01;
shapes = (
{
closed = 1;
nodes = (
(127,400,l),
(107,468,l),
(121,468,l),
(121,480,l),
(104,480,l),
(89,534,l),
(56,534,l),
(0,509,l),
(0,501,l),
(47,501,l),
(18,400,l)
);
},
{
closed = 1;
nodes = (
(48,482,o),
(59,493,o),
(73,493,cs),
(86,493,o),
(97,482,o),
(97,468,c),
(89,468,l),
(90,470,o),
(91,472,o),
(91,474,cs),
(91,480,o),
(87,484,o),
(82,484,cs),
(77,484,o),
(72,480,o),
(72,474,cs),
(72,472,o),
(74,470,o),
(74,468,c),
(48,468,l)
);
}
);
width = 127;
},
{
layerId = "054B8FAF-C17B-419D-B2A9-68F3C3D62E10";
shapes = (
{
closed = 1;
nodes = (
(31,300,o),
(56,308,o),
(56,319,cs),
(56,325,o),
(47,331,o),
(33,334,c),
(1,400,l),
(-32,334,l),
(-46,331,o),
(-55,325,o),
(-55,319,cs),
(-55,308,o),
(-30,300,o),
(1,300,cs)
);
},
{
closed = 1;
nodes = (
(-13,308,o),
(-25,312,o),
(-25,318,cs),
(-25,324,o),
(-13,328,o),
(1,328,cs),
(15,328,o),
(26,324,o),
(26,318,cs),
(26,312,o),
(15,308,o),
(1,308,cs)
);
},
{
closed = 1;
nodes = (
(-4,340,o),
(-8,344,o),
(-8,350,cs),
(-8,352,l),
(-3,352,l),
(-3,350,ls),
(-3,347,o),
(-2,345,o),
(1,345,cs),
(3,345,o),
(5,347,o),
(5,350,cs),
(5,352,l),
(10,352,l),
(10,350,ls),
(10,344,o),
(6,340,o),
(1,340,cs)
);
},
{
closed = 1;
nodes = (
(-13,354,o),
(-15,356,o),
(-15,358,cs),
(-15,361,o),
(-13,363,o),
(-11,363,cs),
(-8,363,o),
(-6,361,o),
(-6,358,cs),
(-6,356,o),
(-8,354,o),
(-11,354,cs)
);
},
{
closed = 1;
nodes = (
(10,354,o),
(8,356,o),
(8,358,cs),
(8,361,o),
(10,363,o),
(12,363,cs),
(15,363,o),
(17,361,o),
(17,358,cs),
(17,356,o),
(15,354,o),
(12,354,cs)
);
}
);
width = 1;
}
);
unicode = 122;
},
{
glyphname = zero;
lastChange = "2024-02-06 15:28:32 +0000";
layers = (
{
layerId = m01;
shapes = (
{
closed = 1;
nodes = (
(198,200,l),
(172,273,l),
(208,292,l),
(203,302,l),
(205,302,ls),
(212,302,o),
(217,308,o),
(217,315,cs),
(217,322,o),
(212,328,o),
(205,328,cs),
(197,328,o),
(191,322,o),
(191,315,cs),
(191,312,o),
(193,309,o),
(195,307,c),
(166,290,l),
(153,326,l),
(208,337,l),
(206,346,l),
(208,344,o),
(211,343,o),
(214,342,c),
(213,335,l),
(220,334,l),
(221,343,l),
(226,345,o),
(229,349,o),
(229,355,cs),
(229,359,o),
(227,363,o),
(224,365,c),
(232,422,l),
(226,424,l),
(217,368,l),
(216,368,ls),
(208,368,o),
(202,362,o),
(202,355,c),
(146,343,l),
(144,350,l),
(53,350,l),
(0,200,l)
);
}
);
width = 232;
},
{
layerId = "054B8FAF-C17B-419D-B2A9-68F3C3D62E10";
shapes = (
{
closed = 1;
nodes = (
(-78,150,o),
(-69,159,o),
(-69,170,c),
(-69,216,l),
(-69,219,o),
(-66,222,o),
(-63,222,c),
(-60,222,o),
(-57,219,o),
(-57,216,c),
(-57,150,l),
(-46,150,o),
(-37,159,o),
(-37,170,c),
(-37,216,l),
(-37,219,o),
(-34,222,o),
(-31,222,c),
(-28,222,o),
(-25,219,o),
(-25,216,c),
(-25,150,l),
(-14,150,o),
(-5,159,o),
(-5,170,c),
(-5,216,l),
(-5,219,o),
(-2,222,o),
(1,222,c),
(4,222,o),
(7,219,o),
(7,216,c),
(7,150,l),
(18,150,o),
(27,159,o),
(27,170,c),
(27,216,l),
(27,219,o),
(30,222,o),
(33,222,c),
(37,222,o),
(39,219,o),
(39,216,c),
(39,150,l),
(50,150,o),
(59,159,o),
(59,170,c),
(59,232,l),
(59,234,o),
(61,236,o),
(64,236,c),
(67,236,o),
(69,234,o),
(69,232,c),
(69,213,l),
(69,202,o),
(78,193,o),
(89,193,c),
(89,253,l),
(89,264,o),
(80,273,o),
(69,273,c),
(59,273,l),
(59,278,l),
(59,290,o),
(50,300,o),
(37,300,c),
(-56,300,l),
(-75,300,o),
(-89,285,o),
(-89,267,c),
(-89,150,l)
);
}
);
width = 0;
}
);
unicode = 48;
},
{
glyphname = one;
lastChange = "2024-02-06 15:28:32 +0000";
layers = (
{
layerId = m01;
shapes = (
{
closed = 1;
nodes = (
(49,0,l),
(49,108,l),
(61,108,l),
(61,0,l),
(99,0,ls),
(105,0,o),
(111,5,o),
(111,11,cs),
(111,17,o),
(105,22,o),
(99,22,cs),
(91,22,l),
(91,150,l),
(19,150,l),
(19,22,l),
(11,22,ls),
(4,22,o),
(0,17,o),
(0,11,cs),
(0,5,o),
(4,0,o),
(11,0,cs)
);
}
);
width = 111;
},
{
layerId = "054B8FAF-C17B-419D-B2A9-68F3C3D62E10";
shapes = (
{
closed = 1;
nodes = (
(-44,21,l),
(-29,0,l),
(-15,21,l),
(0,0,l),
(14,21,l),
(29,0,l),
(43,21,l),
(58,0,l),
(58,92,ls),
(58,124,o),
(32,150,o),
(0,150,cs),
(-32,150,o),
(-58,124,o),
(-58,92,cs),
(-58,0,l)
);
}
);
width = 0;
}
);
unicode = 49;
},
{
glyphname = two;
lastChange = "2024-02-06 15:28:32 +0000";
layers = (
{
layerId = m01;
shapes = (
{
closed = 1;
nodes = (
(89,400,l),
(89,438,l),
(130,438,ls),
(146,438,o),
(159,450,o),
(159,466,cs),
(159,481,o),
(146,494,o),
(130,494,cs),
(117,494,l),
(117,513,l),
(99,513,l),
(99,494,l),
(60,494,l),
(60,513,l),
(42,513,l),
(42,494,l),
(29,494,ls),
(13,494,o),
(0,481,o),
(0,466,cs),
(0,450,o),
(13,438,o),
(29,438,cs),
(70,438,l),
(70,400,l)
);
},
{
closed = 1;
nodes = (
(74,462,o),
(70,467,o),
(70,472,cs),
(70,477,o),
(74,481,o),
(79,481,cs),
(84,481,o),
(89,477,o),
(89,472,cs),
(89,467,o),
(84,462,o),
(79,462,cs)
);
}
);
width = 159;
},
{
layerId = "054B8FAF-C17B-419D-B2A9-68F3C3D62E10";
shapes = (
{
closed = 1;
nodes = (
(-3,307,o),
(3,307,o),
(8,304,cs),
(19,297,o),
(33,306,o),
(33,321,cs),
(33,322,l),
(16,322,l),
(7,333,o),
(7,350,o),
(16,361,c),
(44,361,l),
(44,363,ls),
(44,377,o),
(26,387,o),
(11,379,cs),
(1,374,o),
(1,374,o),
(-10,379,c),
(-11,379,l),
(-25,387,o),
(-43,377,o),
(-43,363,cs),
(-43,361,l),
(-16,361,l),
(-7,350,o),
(-7,333,o),
(-16,322,c),
(-33,322,l),
(-33,321,ls),
(-33,306,o),
(-19,297,o),
(-8,304,cs)
);
},
{
closed = 1;
nodes = (
(-5,312,o),
(-9,316,o),
(-9,321,c),
(10,321,l),
(10,316,o),
(5,312,o),
(0,312,cs)
);
},
{
closed = 1;
nodes = (
(-25,366,o),
(-26,366,o),
(-26,367,c),
(-27,368,o),
(-28,369,o),
(-28,370,cs),
(-28,373,l),
(-27,375,o),
(-27,375,o),
(-26,376,cs),
(-25,377,o),
(-23,377,o),
(-22,377,c),
(-22,371,l),
(-16,371,l),
(-16,370,o),
(-17,369,o),
(-17,368,c),
(-18,367,o),
(-19,366,o),
(-20,366,c),
(-21,365,o),
(-22,365,o),
(-23,365,c)
);
},
{
closed = 1;
nodes = (
(20,366,o),
(19,366,o),
(18,367,cs),
(17,368,o),
(17,369,o),
(17,370,c),
(16,371,o),
(16,372,o),
(17,373,c),
(17,375,o),
(18,375,o),
(19,376,cs),
(20,377,o),
(21,377,o),
(22,377,c),
(22,371,l),
(28,371,l),
(28,370,o),
(28,369,o),
(27,368,c),
(27,367,o),
(26,366,o),
(25,366,c),
(24,365,o),
(22,365,o),
(21,365,c)
);
},
{
closed = 1;
nodes = (
(5,381,o),
(10,382,o),
(14,386,cs),
(18,390,o),
(19,395,o),
(17,400,c),
(12,403,o),
(6,402,o),
(2,398,cs),
(-2,394,o),
(-2,388,o),
(0,383,c)
);
}
);
width = 1;
}
);
unicode = 50;
},
{
glyphname = three;
lastChange = "2024-02-06 15:28:32 +0000";
layers = (
{
layerId = m01;
shapes = (
{
closed = 1;
nodes = (
(165,200,l),
(165,216,l),
(168,211,o),
(172,208,o),
(177,208,cs),
(185,208,o),
(190,214,o),
(190,222,cs),
(190,226,o),
(188,230,o),
(184,232,c),
(218,296,l),
(219,297,l),
(165,350,l),
(53,350,l),
(0,297,l),
(1,296,l),
(0,296,l),
(34,232,l),
(30,230,o),
(28,226,o),
(28,222,cs),
(28,214,o),
(34,208,o),
(42,208,cs),
(46,208,o),
(51,211,o),
(53,216,c),
(53,200,l)
);
},
{
closed = 1;
nodes = (
(51,231,o),
(48,233,o),
(45,235,c),
(52,238,l),
(23,293,l),
(53,323,l),
(53,227,l)
);
},
{
closed = 1;
nodes = (
(104,266,o),
(100,270,o),
(100,275,cs),
(100,280,o),
(104,285,o),
(109,285,cs),
(114,285,o),
(119,280,o),
(119,275,cs),
(119,270,o),
(114,266,o),
(109,266,cs)
);
},
{
closed = 1;
nodes = (
(165,323,l),
(195,293,l),
(166,238,l),
(174,235,l),
(171,233,o),
(168,231,o),
(165,227,c)
);
}
);
width = 219;
},
{
layerId = "054B8FAF-C17B-419D-B2A9-68F3C3D62E10";
shapes = (
{
closed = 1;
nodes = (
(96,150,l),
(96,182,l),
(68,182,o),
(51,191,o),
(40,203,c),
(68,203,l),
(68,227,l),
(45,227,o),
(33,235,o),
(25,246,c),
(48,246,l),
(48,262,l),
(16,262,o),
(13,284,o),
(11,300,c),
(-10,300,l),
(-12,284,o),
(-16,262,o),
(-48,262,c),
(-48,246,l),
(-25,246,l),
(-32,235,o),
(-45,227,o),
(-68,227,c),
(-68,203,l),
(-40,203,l),
(-51,191,o),
(-68,182,o),
(-96,182,c),
(-96,150,l)
);
}
);
width = 0;
}
);
unicode = 51;
},
{
glyphname = four;
lastChange = "2024-02-06 15:28:32 +0000";
layers = (
{
layerId = m01;
shapes = (
{
closed = 1;
nodes = (
(49,0,l),
(49,107,l),
(64,107,l),
(64,0,l),
(101,0,l),
(101,19,l),
(82,19,l),
(82,107,l),
(90,107,ls),
(103,107,o),
(112,117,o),
(112,130,cs),
(112,150,l),
(0,150,l),
(0,130,ls),
(0,117,o),
(10,107,o),
(22,107,cs),
(30,107,l),
(30,19,l),
(11,19,l),
(11,0,l)
);
}
);
width = 112;
},
{
layerId = "054B8FAF-C17B-419D-B2A9-68F3C3D62E10";
shapes = (
{
closed = 1;
nodes = (
(71,0,l),
(71,21,l),
(24,21,l),
(24,58,l),
(53,58,l),
(53,75,l),
(24,75,l),
(24,150,l),
(-24,150,l),
(-24,121,l),
(-56,121,l),
(-56,104,l),
(-24,104,l),
(-24,21,l),
(-70,21,l),
(-70,0,l)
);
},
{
closed = 1;
nodes = (
(-8,104,o),
(-14,110,o),
(-14,118,cs),
(-14,125,o),
(-8,132,o),
(0,132,cs),
(8,132,o),
(14,125,o),
(14,118,cs),
(14,110,o),
(8,104,o),
(0,104,cs)
);
}
);
width = 1;
}
);
unicode = 52;
},
{
glyphname = five;
lastChange = "2024-02-06 15:28:32 +0000";
layers = (
{
layerId = m01;
shapes = (
{
closed = 1;
nodes = (
(183,400,o),
(213,426,o),
(213,456,cs),
(213,487,o),
(183,513,o),
(106,513,cs),
(30,513,o),
(0,487,o),
(0,456,cs),
(0,426,o),
(30,400,o),
(106,400,cs)
);
},
{
closed = 1;
nodes = (
(44,477,o),
(40,480,o),
(40,486,cs),
(40,491,o),
(44,495,o),
(49,495,cs),
(54,495,o),
(59,491,o),
(59,486,cs),
(59,480,o),
(54,477,o),
(49,477,cs)
);
},
{
closed = 1;
nodes = (
(84,477,o),
(80,480,o),
(80,486,cs),
(80,491,o),
(84,495,o),
(89,495,cs),
(94,495,o),
(99,491,o),
(99,486,cs),
(99,480,o),
(94,477,o),
(89,477,cs)
);
}
);
width = 213;
},
{
layerId = "054B8FAF-C17B-419D-B2A9-68F3C3D62E10";
shapes = (
{
closed = 1;
nodes = (
(-17,300,o),
(-4,313,o),
(-4,329,cs),
(-4,332,l),
(-4,364,l),
(51,364,l),
(51,353,l),
(46,357,o),
(40,358,o),
(34,358,cs),
(18,358,o),
(5,345,o),
(5,329,cs),
(5,313,o),
(18,300,o),
(34,300,cs),
(50,300,o),
(64,313,o),
(64,329,cs),
(64,400,l),
(-17,400,l),
(-17,354,l),
(-22,357,o),
(-28,358,o),
(-33,358,cs),
(-50,358,o),
(-63,345,o),
(-63,329,cs),
(-63,313,o),
(-50,300,o),
(-33,300,cs)
);
},
{
closed = 1;
nodes = (
(-46,319,o),
(-49,324,o),
(-49,329,cs),
(-49,334,o),
(-47,338,o),
(-44,341,c),
(-53,341,l),
(-53,348,l),
(-33,348,l),
(-33,345,l),
(-25,345,o),
(-18,338,o),
(-18,329,cs),
(-18,324,o),
(-21,319,o),
(-25,316,cs),
(-24,317,o),
(-23,319,o),
(-23,321,cs),
(-23,327,o),
(-28,331,o),
(-33,331,cs),
(-36,331,l),
(-35,330,o),
(-33,328,o),
(-33,326,cs),
(-33,324,o),
(-36,321,o),
(-38,321,cs),
(-40,321,o),
(-42,323,o),
(-43,324,c),
(-43,321,ls),
(-43,319,o),
(-43,317,o),
(-42,316,cs)
);
},
{
closed = 1;
nodes = (
(22,319,o),
(19,324,o),
(19,329,cs),
(19,334,o),
(21,338,o),
(24,341,c),
(15,341,l),
(15,348,l),
(34,348,l),
(34,345,l),
(43,345,o),
(50,338,o),
(50,329,cs),
(50,324,o),
(47,319,o),
(43,316,cs),
(44,317,o),
(44,319,o),
(44,321,cs),
(44,327,o),
(40,331,o),
(34,331,cs),
(31,331,l),
(33,330,o),
(34,328,o),
(34,326,cs),
(34,324,o),
(32,321,o),
(29,321,cs),
(27,321,o),
(26,323,o),
(25,324,c),
(25,323,o),
(24,322,o),
(24,321,cs),
(24,319,o),
(25,317,o),
(26,316,cs)
);
}
);
width = 1;
}
);
unicode = 53;
},
{
glyphname = six;
lastChange = "2024-02-06 15:28:32 +0000";
layers = (
{
layerId = m01;
shapes = (
{
closed = 1;
nodes = (
(241,124,l),
(223,195,l),
(225,193,o),
(228,192,o),
(231,192,cs),
(239,192,o),
(244,198,o),
(244,206,cs),
(244,211,o),
(240,216,o),
(235,218,c),
(273,275,l),
(189,331,l),
(84,331,l),
(0,275,l),
(38,217,l),
(33,216,o),
(30,211,o),
(30,206,cs),
(30,198,o),
(36,192,o),
(43,192,cs),
(45,192,o),
(48,193,o),
(50,195,c),
(33,124,l)
);
},
{
closed = 1;
nodes = (
(53,214,o),
(51,216,o),
(48,218,c),
(57,223,l),
(26,270,l),
(78,304,l),
(54,212,l)
);
},
{
closed = 1;
nodes = (
(216,223,l),
(195,304,l),
(247,270,l),
(216,223,l),
(225,217,l),
(222,216,o),
(220,213,o),
(219,210,c)
);
}
);
width = 273;
},
{
layerId = "054B8FAF-C17B-419D-B2A9-68F3C3D62E10";
shapes = (
{
closed = 1;
nodes = (
(77,150,l),
(14,189,l),
(14,300,l),
(-13,300,l),
(-13,278,l),
(-94,278,l),
(-94,249,o),
(-94,196,o),
(-54,196,cs),
(-14,196,o),
(-13,248,o),
(-13,277,cs),
(-13,189,l),
(-76,150,l)
);
},
{
closed = 1;
nodes = (
(-60,212,o),
(-66,218,o),
(-66,224,cs),
(-66,235,l),
(-43,235,l),
(-43,224,ls),
(-43,218,o),
(-48,212,o),
(-54,212,cs)
);
},
{
closed = 1;
nodes = (
(-78,241,o),
(-83,246,o),
(-83,253,cs),
(-83,264,l),
(-61,264,l),
(-61,253,ls),
(-61,246,o),
(-66,241,o),
(-72,241,cs)
);
},
{
closed = 1;
nodes = (
(-43,241,o),
(-48,246,o),
(-48,253,cs),
(-48,264,l),
(-25,264,l),
(-25,253,ls),
(-25,246,o),
(-30,241,o),
(-37,241,cs)
);
},
{
closed = 1;
nodes = (
(47,212,o),
(42,218,o),
(42,224,cs),
(42,235,l),
(65,235,l),
(65,224,ls),
(65,218,o),
(60,212,o),
(54,212,cs)
);
},
{
closed = 1;
nodes = (
(30,241,o),
(24,246,o),
(24,253,cs),
(24,264,l),
(47,264,l),
(47,253,ls),
(47,246,o),
(42,241,o),
(36,241,cs)
);
},
{
closed = 1;
nodes = (
(94,196,o),
(94,249,o),
(94,278,c),
(14,278,l),
(14,249,o),
(14,196,o),
(54,196,cs)
);
},
{
closed = 1;
nodes = (
(65,241,o),
(60,246,o),
(60,253,cs),
(60,264,l),
(83,264,l),
(83,253,ls),
(83,246,o),
(78,241,o),
(71,241,cs)
);
}
);
width = 0;
}
);
unicode = 54;
},
{
glyphname = seven;
lastChange = "2024-02-06 15:28:32 +0000";
layers = (
{
layerId = m01;
shapes = (
{
closed = 1;
nodes = (
(153,0,ls),
(159,0,o),
(164,5,o),
(164,11,cs),
(164,17,o),
(159,22,o),
(153,22,cs),
(118,22,l),
(118,150,l),
(88,150,l),
(88,0,l)
);
},
{
closed = 1;
nodes = (
(76,0,l),
(76,150,l),
(46,150,l),
(46,22,l),
(12,22,ls),
(5,22,o),
(0,17,o),
(0,11,cs),
(0,5,o),
(5,0,o),
(12,0,cs)
);
}
);
width = 164;
},
{
layerId = "054B8FAF-C17B-419D-B2A9-68F3C3D62E10";
shapes = (
{
closed = 1;
nodes = (
(-53,0,o),
(-17,22,o),
(0,54,c),
(18,22,o),
(54,0,o),
(94,0,c),
(94,26,l),
(55,26,o),
(22,54,o),
(16,91,c),
(29,80,o),
(46,74,o),
(65,74,cs),
(94,74,l),
(94,101,l),
(65,101,ls),
(37,101,o),
(15,123,o),
(15,150,c),
(-14,150,l),
(-14,123,o),
(-37,101,o),
(-64,101,cs),
(-94,101,l),
(-94,74,l),
(-64,74,ls),
(-45,74,o),
(-28,80,o),
(-15,91,c),
(-21,54,o),
(-54,26,o),
(-94,26,c),
(-94,0,l)
);
}
);
width = 0;
}
);
unicode = 55;
},
{
glyphname = eight;
lastChange = "2024-02-06 15:28:32 +0000";
layers = (
{
layerId = m01;
shapes = (
{
closed = 1;
nodes = (
(89,400,l),
(89,423,l),
(114,423,ls),
(138,423,o),
(159,443,o),
(159,468,cs),
(159,471,ls),
(159,496,o),
(138,516,o),
(114,516,cs),
(89,516,l),
(89,535,l),
(70,535,l),
(70,516,l),
(45,516,ls),
(21,516,o),
(0,496,o),
(0,471,cs),
(0,468,ls),
(0,443,o),
(21,423,o),
(45,423,cs),
(70,423,l),
(70,400,l)
);
},
{
closed = 1;
nodes = (
(68,477,o),
(59,485,o),
(59,494,c),
(100,494,l),
(100,485,o),
(91,477,o),
(80,477,cs)
);
}
);
width = 159;
},
{
layerId = "054B8FAF-C17B-419D-B2A9-68F3C3D62E10";
shapes = (
{
closed = 1;
nodes = (
(49,356,l),
(0,400,l),
(-48,356,l)
);
},
{
closed = 1;
nodes = (
(-29,328,ls),
(-29,333,o),
(-26,337,o),
(-22,338,c),
(-22,318,l),
(-29,318,l)
);
},
{
closed = 1;
nodes = (
(-16,338,l),
(-11,337,o),
(-8,333,o),
(-8,328,cs),
(-8,318,l),
(-16,318,l)
);
},
{
closed = 1;
nodes = (
(-2,300,l),
(-2,324,l),
(12,324,l),
(12,300,l),
(40,300,l),
(40,348,l),
(-40,348,l),
(-40,300,l)
);
},
{
closed = 1;
nodes = (
(15,328,ls),
(15,333,o),
(19,337,o),
(23,338,c),
(23,318,l),
(15,318,l)
);
},
{
closed = 1;
nodes = (
(29,338,l),
(33,337,o),
(37,333,o),
(37,328,cs),
(37,318,l),
(29,318,l)
);
},
{
closed = 1;
nodes = (
(39,398,l),
(24,398,l),
(24,390,l),
(39,377,l)
);
}
);
width = 1;
}
);
unicode = 56;
},
{
glyphname = nine;
lastChange = "2024-02-06 15:28:32 +0000";
layers = (
{
layerId = m01;
shapes = (
{
closed = 1;
nodes = (
(166,200,l),
(166,238,l),
(168,235,o),
(172,233,o),
(177,233,cs),
(183,233,o),
(189,239,o),
(189,247,cs),
(189,247,l),
(197,244,l),
(219,297,l),
(166,350,l),
(53,350,l),
(0,297,l),
(50,247,l),
(48,248,o),
(47,248,o),
(45,248,cs),
(37,248,o),
(32,242,o),
(32,235,cs),
(32,228,o),
(37,222,o),
(45,222,cs),
(48,222,o),
(51,223,o),
(53,225,c),
(53,200,l)
);
},
{
closed = 1;
nodes = (
(27,297,l),
(53,324,l),
(53,271,l)
);
},
{
closed = 1;
nodes = (
(166,323,l),
(197,292,l),
(182,258,l),
(180,259,o),
(178,259,o),
(177,259,cs),
(172,259,o),
(168,258,o),
(166,254,c)
);
}
);
width = 219;
},
{
layerId = "054B8FAF-C17B-419D-B2A9-68F3C3D62E10";
shapes = (
{
closed = 1;
nodes = (
(79,150,l),
(25,193,l),
(44,202,o),
(56,221,o),
(56,243,cs),
(56,274,o),
(31,300,o),
(0,300,cs),
(-32,300,o),
(-57,274,o),
(-57,243,cs),
(-57,221,o),
(-44,202,o),
(-26,193,c),
(-79,150,l)
);
},
{
closed = 1;
nodes = (
(-17,212,o),
(-31,226,o),
(-31,243,cs),
(-31,260,o),
(-17,274,o),
(0,274,cs),
(17,274,o),
(31,260,o),
(31,243,cs),
(31,226,o),
(17,212,o),
(0,212,cs)
);
}
);
width = 0;
}
);
unicode = 57;
},
{
glyphname = period;
lastChange = "2024-02-05 20:51:32 +0000";
layers = (
{
layerId = m01;
shapes = (
{
closed = 1;
nodes = (
(-13,0,l),
(-13,166,l),
(12,166,l),
(12,0,l),
(84,0,l),
(84,10,ls),
(84,32,o),
(67,50,o),
(44,50,cs),
(38,50,l),
(38,200,l),
(-39,200,l),
(-39,50,l),
(-45,50,ls),
(-68,50,o),
(-85,32,o),
(-85,10,cs),
(-85,0,l)
);
}
);
width = 0;
},
{
layerId = "054B8FAF-C17B-419D-B2A9-68F3C3D62E10";
shapes = (
{
closed = 1;
nodes = (
(-19,0,l),
(-19,23,l),
(-9,23,l),
(-9,80,l),
(0,89,l),
(10,80,l),
(10,23,l),
(19,23,l),
(19,0,l),
(66,0,l),
(66,3,ls),
(66,7,o),
(63,10,o),
(59,10,cs),
(58,10,ls),
(44,10,o),
(40,19,o),
(40,23,c),
(66,23,l),
(66,103,l),
(19,150,l),
(-18,150,l),
(-65,103,l),
(-65,23,l),
(-39,23,l),
(-40,19,o),
(-44,10,o),
(-58,10,cs),
(-59,10,ls),
(-62,10,o),
(-65,7,o),
(-65,3,cs),
(-65,0,l)
);
},
{
closed = 1;
nodes = (
(-54,79,o),
(-61,85,o),
(-61,94,cs),
(-61,102,o),
(-54,109,o),
(-46,109,cs),
(-37,109,o),
(-31,102,o),
(-31,94,cs),
(-31,85,o),
(-37,79,o),
(-46,79,cs)
);
},
{
closed = 1;
nodes = (
(-38,87,l),
(-38,101,l),
(-53,101,l),
(-53,87,l)
);
},
{
closed = 1;
nodes = (
(39,79,o),
(32,85,o),
(32,94,cs),
(32,102,o),
(39,109,o),
(47,109,cs),
(55,109,o),
(62,102,o),
(62,94,cs),
(62,85,o),
(55,79,o),
(47,79,cs)
);
},
{
closed = 1;
nodes = (
(54,87,l),
(54,101,l),
(40,101,l),
(40,87,l)
);
}
);
width = 1;
}
);
unicode = 46;
},
{
glyphname = comma;
lastChange = "2024-02-05 20:51:32 +0000";
layers = (
{
layerId = m01;
shapes = (
{
closed = 1;
nodes = (
(154,0,l),
(154,10,ls),
(154,25,o),
(146,39,o),
(133,46,c),
(170,107,l),
(148,120,l),
(116,66,l),
(111,144,l),
(115,144,ls),
(142,144,o),
(164,165,o),
(164,192,cs),
(164,217,o),
(145,238,o),
(121,241,c),
(121,267,l),
(94,267,l),
(94,241,l),
(70,241,l),
(70,267,l),
(43,267,l),
(43,241,l),
(19,238,o),
(0,217,o),
(0,192,cs),
(0,165,o),
(22,144,o),
(49,144,cs),
(53,144,l),
(47,50,l),
(26,49,o),
(10,31,o),
(10,10,cs),
(10,0,l)
);
},
{
closed = 1;
nodes = (
(75,194,o),
(69,200,o),
(69,207,cs),
(69,214,o),
(75,219,o),
(82,219,cs),
(89,219,o),
(94,214,o),
(94,207,cs),
(94,200,o),
(89,194,o),
(82,194,cs)
);
}
);
width = 170;
},
{
layerId = "054B8FAF-C17B-419D-B2A9-68F3C3D62E10";
shapes = (
{
closed = 1;
nodes = (
(324,47,l),
(324,101,l),
(277,101,o),
(248,116,o),
(230,136,c),
(277,136,l),
(277,177,l),
(238,177,o),
(218,190,o),
(204,209,c),
(243,209,l),
(243,236,l),
(189,236,o),
(184,273,o),
(181,300,c),
(145,300,l),
(142,273,o),
(135,236,o),
(81,236,c),
(81,209,l),
(120,209,l),
(108,190,o),
(86,177,o),
(47,177,c),
(47,136,l),
(94,136,l),
(76,116,o),
(47,101,o),
(0,101,c),
(0,47,l)
);
},
{
closed = 1;
nodes = (
(137,0,l),
(188,0,l),
(188,112,l),
(137,112,l)
);
}
);
width = 324;
}
);
unicode = 44;
},
{
glyphname = hyphen;
lastChange = "2024-02-05 21:08:34 +0000";
layers = (
{
layerId = m01;
shapes = (
{
closed = 1;
nodes = (
(144,0,l),
(144,53,ls),
(144,94,o),
(113,128,o),
(73,132,c),
(85,139,o),
(93,152,o),
(93,167,cs),
(93,178,o),
(88,189,o),
(79,196,c),
(51,225,l),
(51,206,l),
(32,225,l),
(32,200,l),
(23,194,o),
(16,184,o),
(15,173,c),
(0,173,l),
(0,160,l),
(15,160,l),
(17,144,o),
(29,132,o),
(44,128,c),
(44,94,l),
(41,99,o),
(36,103,o),
(30,103,cs),
(22,103,o),
(15,96,o),
(15,88,cs),
(15,79,o),
(22,72,o),
(30,72,cs),
(36,72,o),
(41,76,o),
(44,81,c),
(44,27,l),
(14,27,l),
(14,0,l)
);
},
{
closed = 1;
nodes = (
(35,164,o),
(29,170,o),
(29,177,cs),
(29,183,o),
(35,189,o),
(42,189,cs),
(48,189,o),
(54,183,o),
(54,177,cs),
(54,170,o),
(48,164,o),
(42,164,cs)
);
}
